<svg width="108" height="108" viewBox="0 0 108 108" fill="none" xmlns="http://www.w3.org/2000/svg">
<circle cx="54" cy="54" r="53.5" stroke="white"/>
<g clip-path="url(#clip0_134_3308)">
<path d="M77.3682 57.3448C77.3682 55.2647 75.676 53.5726 73.5961 53.5726C71.5161 53.5726 69.8239 55.2648 69.8239 57.3448C69.8239 59.4247 71.5161 61.1169 73.5961 61.1169C75.676 61.1169 77.3682 59.4247 77.3682 57.3448ZM71.5816 57.3448C71.5816 56.234 72.4853 55.3304 73.596 55.3304C74.7067 55.3304 75.6103 56.2341 75.6103 57.3448C75.6103 58.4555 74.7067 59.3591 73.596 59.3591C72.4853 59.3591 71.5816 58.4555 71.5816 57.3448ZM75.584 80.1791C78.0194 80.1791 80.0008 78.1977 80.0008 75.7622C80.0008 73.3267 78.0194 71.3453 75.584 71.3453C73.1485 71.3453 71.1671 73.3267 71.1671 75.7622C71.1671 78.1977 73.1485 80.1791 75.584 80.1791ZM75.584 73.1031C77.0503 73.1031 78.243 74.2959 78.243 75.7622C78.243 77.2284 77.0502 78.4213 75.584 78.4213C74.1179 78.4213 72.9249 77.2284 72.9249 75.7622C72.9249 74.2959 74.1179 73.1031 75.584 73.1031ZM66.6973 67.2037C66.6973 68.8449 68.0326 70.1803 69.6738 70.1803C71.315 70.1803 72.6503 68.8449 72.6503 67.2037C72.6503 65.5625 71.3149 64.2272 69.6738 64.2272C68.0326 64.2272 66.6973 65.5624 66.6973 67.2037ZM70.8926 67.2037C70.8926 67.8757 70.3459 68.4225 69.6739 68.4225C69.002 68.4225 68.4552 67.8757 68.4552 67.2037C68.4552 66.5318 69.002 65.985 69.6739 65.985C70.3459 65.985 70.8926 66.5317 70.8926 67.2037Z" fill="white"/>
<path d="M82.714 68.0052C80.8702 67.4418 79.6311 65.7673 79.6311 63.8383C79.6311 61.9093 80.87 60.2348 82.7139 59.6713C83.483 59.4365 83.9999 58.7357 83.9999 57.9277C83.9999 55.8707 83.1991 53.9374 81.7454 52.4837C80.2916 51.0298 78.3586 50.2291 76.3026 50.2291H70.4922V45.5281C70.4922 42.6081 69.6061 39.8107 67.9975 37.6513L63.6025 31.7514H63.6074C64.609 31.7514 65.4238 30.9365 65.4238 29.9349V25.8164C65.4238 24.8148 64.609 24 63.6074 24H50.2487C49.2471 24 48.4323 24.8148 48.4323 25.8164V29.9348C48.4323 30.9364 49.2471 31.7512 50.2487 31.7512H50.2536L45.8586 37.6511C44.2498 39.8108 43.3639 42.6082 43.3639 45.528V55.3361H37.1269C36.6413 55.3361 36.2479 55.7296 36.2479 56.215C36.2479 56.7004 36.6413 57.0939 37.1269 57.0939H51.626V59.252H25.7578V57.0939H32.9785C33.464 57.0939 33.8574 56.7004 33.8574 56.215C33.8574 55.7296 33.464 55.3361 32.9785 55.3361H25.59C24.7133 55.3361 24 56.0494 24 56.9261V59.4197C24 60.1556 24.5031 60.7744 25.1829 60.955L26.9285 75.1256L26.9286 75.1266L27.7568 81.8495C27.8708 82.7629 28.6502 83.4516 29.57 83.4516H75.3982C75.8837 83.4516 76.2771 83.0581 76.2771 82.5727C76.2771 82.0873 75.8837 81.6938 75.3982 81.6938H63.9966C63.9783 81.6935 63.9609 81.6861 63.9479 81.6732C63.935 81.6602 63.9276 81.6428 63.9273 81.6245V57.9276C63.9273 54.6519 66.5923 51.9868 69.868 51.9868H76.3024C77.8889 51.9868 79.3806 52.6046 80.5024 53.7265C81.6243 54.8483 82.2421 56.3403 82.2421 57.9276C82.2421 57.9565 82.2246 57.9828 82.2005 57.9902C79.6124 58.781 77.8735 61.131 77.8735 63.8382C77.8735 66.5453 79.6124 68.8955 82.2007 69.6863C82.2247 69.6936 82.2422 69.7199 82.2422 69.7487V81.6245C82.2422 81.6429 82.2349 81.6605 82.2219 81.6734C82.2089 81.6864 82.1913 81.6937 82.1729 81.6938H79.5465C79.061 81.6938 78.6676 82.0873 78.6676 82.5727C78.6676 83.0581 79.061 83.4516 79.5465 83.4516H82.1729C83.1804 83.4516 84 82.632 84 81.6245V69.7489C83.9999 68.9406 83.4831 68.24 82.714 68.0052ZM50.1901 29.9348V25.8164C50.1901 25.8009 50.1962 25.786 50.2072 25.775C50.2182 25.764 50.2331 25.7578 50.2487 25.7578H63.6073C63.6228 25.7578 63.6377 25.764 63.6487 25.775C63.6597 25.786 63.6659 25.8009 63.6659 25.8164V29.9348C63.6659 29.9504 63.6597 29.9653 63.6487 29.9763C63.6377 29.9873 63.6228 29.9934 63.6073 29.9934H50.2487C50.2331 29.9934 50.2182 29.9873 50.2072 29.9763C50.1962 29.9653 50.1901 29.9504 50.1901 29.9348ZM45.1216 45.528C45.1216 42.9839 45.8839 40.5595 47.2681 38.7013L52.4455 31.7512H61.4105L66.5877 38.7013C67.9719 40.5593 68.7342 42.9838 68.7342 45.528V50.3131C68.1169 50.4047 67.5131 50.5717 66.9365 50.8103V45.528C66.9365 43.3998 66.2839 41.3028 65.1459 39.775L63.443 37.4892C63.2505 37.2316 63.0006 37.0223 62.7133 36.8779C62.4259 36.7335 62.1089 36.658 61.7873 36.6573H52.0687C51.7472 36.658 51.4303 36.7335 51.143 36.8778C50.8557 37.0221 50.6059 37.2313 50.4133 37.4887L48.7102 39.775C47.5722 41.3028 46.9196 43.3998 46.9196 45.528V55.3361H45.1217L45.1216 45.528ZM62.173 81.6939H49.9815L50.203 79.8961H62.1695V81.6246C62.1695 81.6479 62.1721 81.6707 62.173 81.6939ZM49.1389 74.1572H44.7672C45.1851 73.2811 45.4016 72.3226 45.4006 71.352C45.4006 70.3484 45.1728 69.3973 44.7672 68.5466H49.8302L49.1389 74.1572ZM27.8891 68.5465H32.9528C32.5472 69.3972 32.3194 70.3484 32.3194 71.3519C32.3194 72.3553 32.5471 73.3064 32.9526 74.1571H28.5803L27.8891 68.5465ZM34.0772 71.352C34.0772 68.7148 36.2228 66.5692 38.8598 66.5692C41.4971 66.5692 43.6426 68.7148 43.6426 71.352C43.6426 73.9892 41.497 76.1347 38.8598 76.1347C36.2228 76.1347 34.0772 73.9892 34.0772 71.352ZM50.0465 66.7887H43.5393C42.3507 65.5701 40.6926 64.8113 38.8598 64.8113C37.027 64.8113 35.369 65.57 34.1804 66.7887H27.6725L26.9606 61.0099H50.7584L50.0465 66.7887ZM29.5011 81.6333L28.7967 75.915H34.1803C35.3689 77.1338 37.027 77.8926 38.8599 77.8926C40.6929 77.8926 42.3509 77.1338 43.5396 75.915H48.9223L48.2178 81.6343C48.2157 81.651 48.2076 81.6663 48.1949 81.6773C48.1822 81.6883 48.1659 81.6942 48.1491 81.6939H29.5699C29.553 81.6939 29.5367 81.6878 29.524 81.6766C29.5114 81.6655 29.5032 81.65 29.5011 81.6333ZM62.1695 57.9276V78.1382H50.4195L50.7898 75.1316L50.7908 75.1237L52.5533 60.8161C53.0476 60.5461 53.3837 60.0215 53.3837 59.4197V56.9261C53.3837 56.0494 52.6703 55.3361 51.7937 55.3361H48.6773V45.528C48.6773 43.7701 49.203 42.0559 50.1199 40.8252L51.8232 38.5386C51.8515 38.5002 51.8885 38.4689 51.9312 38.4475C51.9738 38.426 52.0209 38.4149 52.0687 38.4151H61.7874C61.8352 38.4149 61.8824 38.426 61.9251 38.4475C61.9678 38.469 62.0048 38.5003 62.0331 38.5388L63.7363 40.825C64.6531 42.0559 65.1789 43.7701 65.1789 45.528V51.8281C63.3506 53.2371 62.1695 55.4464 62.1695 57.9276Z" fill="white"/>
</g>
<defs>
<clipPath id="clip0_134_3308">
<rect width="60" height="60" fill="white" transform="translate(24 24)"/>
</clipPath>
</defs>
</svg>
