<svg width="108" height="108" viewBox="0 0 108 108" fill="none" xmlns="http://www.w3.org/2000/svg">
<circle cx="54" cy="54" r="53.5" stroke="white"/>
<g clip-path="url(#clip0_134_3319)">
<path fill-rule="evenodd" clip-rule="evenodd" d="M34 24.7317C34 24.3276 34.3276 24 34.7317 24H72.8052C73.2093 24 73.5369 24.3276 73.5369 24.7317V32.822C73.5369 33.2261 73.2093 33.5537 72.8052 33.5537C72.4011 33.5537 72.0735 33.2261 72.0735 32.822V25.4634H35.4634V77.7771H72.0735V36.9561C72.0735 36.552 72.4011 36.2244 72.8052 36.2244C73.2093 36.2244 73.5369 36.552 73.5369 36.9561V78.5088C73.5369 78.9129 73.2093 79.2405 72.8052 79.2405H72.3462V83.2683C72.3462 83.6724 72.0186 84 71.6145 84H46.9573C46.5531 84 46.2256 83.6724 46.2256 83.2683C46.2256 82.8642 46.5531 82.5366 46.9573 82.5366H70.8828V79.2405H36.6542V82.5366H42.8232C43.2273 82.5366 43.5549 82.8642 43.5549 83.2683C43.5549 83.6724 43.2273 84 42.8232 84H35.9225C35.5184 84 35.1908 83.6724 35.1908 83.2683V79.2405H34.7317C34.3276 79.2405 34 78.9129 34 78.5088V24.7317ZM42.3806 27.8078C42.3584 27.8068 42.336 27.8068 42.3135 27.8078H38.5395C38.1354 27.8078 37.8078 28.1354 37.8078 28.5395V50.1795C37.8077 50.1839 37.8077 50.1883 37.8077 50.1928V54C37.8077 54.0044 37.8077 54.0089 37.8078 54.0133V58.7595C37.8078 59.1636 38.1354 59.4912 38.5395 59.4912C38.9436 59.4912 39.2712 59.1636 39.2712 58.7595V54.7317H68.2657V66.3558H65.4459V58.759C65.4459 58.3549 65.1183 58.0273 64.7142 58.0273H59.9552C59.5511 58.0273 59.2235 58.3549 59.2235 58.759V66.3558H56.8797V58.759C56.8797 58.3549 56.5521 58.0273 56.148 58.0273H51.389C50.9848 58.0273 50.6573 58.3549 50.6573 58.759V66.3558H48.3134V58.759C48.3134 58.3549 47.9858 58.0273 47.5817 58.0273H42.8227C42.4186 58.0273 42.091 58.3549 42.091 58.759V66.3558H39.2712V62.8936C39.2712 62.4895 38.9436 62.1619 38.5395 62.1619C38.1354 62.1619 37.8078 62.4895 37.8078 62.8936V67.0742C37.8077 67.0786 37.8077 67.083 37.8077 67.0875V70.8947C37.8077 70.8991 37.8077 70.9036 37.8078 70.908V74.7022C37.8078 75.1063 38.1354 75.4339 38.5395 75.4339H68.9974C69.4015 75.4339 69.7291 75.1063 69.7291 74.7022V70.9081C69.7292 70.9036 69.7292 70.8992 69.7292 70.8947V67.0875C69.7292 67.083 69.7292 67.0785 69.7291 67.0741V54.0134C69.7292 54.0089 69.7292 54.0045 69.7292 54V50.1928C69.7292 50.1883 69.7292 50.1838 69.7291 50.1794V28.5395C69.7291 28.1354 69.4015 27.8078 68.9974 27.8078H65.2233C65.2008 27.8068 65.1785 27.8068 65.1563 27.8078H53.8243C53.8057 27.8075 53.7871 27.8074 53.7685 27.8074C53.7498 27.8074 53.7312 27.8075 53.7126 27.8078H42.3806ZM51.0635 29.2712H43.3095L44.705 34.2954C44.705 34.2954 44.705 34.2954 44.705 34.2954C45.0463 35.5236 46.1645 36.3735 47.4391 36.3735H60.0977C61.3724 36.3735 62.4907 35.5235 62.8318 34.2955L64.2273 29.2712H56.4734C56.8056 29.7789 56.9988 30.3857 56.9988 31.0376C56.9988 32.8217 55.5524 34.2678 53.7685 34.2678C51.9845 34.2678 50.5382 32.8217 50.5382 31.0376C50.5382 30.3857 50.7313 29.7789 51.0635 29.2712ZM53.7272 29.2712C52.7704 29.2932 52.0016 30.0756 52.0016 31.0376C52.0016 32.0134 52.7926 32.8044 53.7685 32.8044C54.7443 32.8044 55.5353 32.0134 55.5353 31.0376C55.5353 30.0756 54.7665 29.2932 53.8098 29.2712H53.7272ZM65.7462 29.2712L64.2418 34.6871C63.7247 36.5487 62.0297 37.8369 60.0977 37.8369H47.4391C45.5071 37.8369 43.8122 36.5486 43.295 34.6872L41.7906 29.2712H39.2712V49.4611H42.091V41.8644C42.091 41.4603 42.4186 41.1327 42.8227 41.1327H47.5817C47.9858 41.1327 48.3134 41.4603 48.3134 41.8644V49.4611H50.6573V41.8644C50.6573 41.4603 50.9848 41.1327 51.389 41.1327H56.148C56.5521 41.1327 56.8797 41.4603 56.8797 41.8644V49.4611H59.2235V41.8644C59.2235 41.4603 59.5511 41.1327 59.9552 41.1327H64.7142C65.1183 41.1327 65.4459 41.4603 65.4459 41.8644V49.4611H68.2657V29.2712H65.7462ZM68.2657 50.9245H39.2712V53.2683H68.2657V50.9245ZM63.9825 49.4611V42.5961H60.6869V49.4611H63.9825ZM55.4163 49.4611V42.5961H52.1207V49.4611H55.4163ZM46.85 49.4611V42.5961H43.5544V49.4611H46.85ZM68.2657 67.8192V70.163H39.2712V67.8192H68.2657ZM39.2712 71.6264H68.2657V73.9705H39.2712V71.6264ZM43.5544 66.3558H46.85V59.4907H43.5544V66.3558ZM52.1207 66.3558H55.4163V59.4907H52.1207V66.3558ZM60.6869 66.3558H63.9825V59.4907H60.6869V66.3558Z" fill="white"/>
</g>
<defs>
<clipPath id="clip0_134_3319">
<rect width="60" height="60" fill="white" transform="translate(24 24)"/>
</clipPath>
</defs>
</svg>
