<svg width="108" height="108" viewBox="0 0 108 108" fill="none" xmlns="http://www.w3.org/2000/svg">
<circle cx="54" cy="54" r="53.5" stroke="white"/>
<g clip-path="url(#clip0_134_3264)">
<path d="M81.9746 61.2377C81.7195 59.1473 80.8905 57.5091 79.0229 56.3681C77.6699 55.5396 76.5743 55.4107 71.3926 54.1206V53.8498H76.5648C77.8189 53.8498 78.8411 52.8373 78.8566 51.5866C79.5095 40.5159 79.6079 39.2476 79.5634 38.7243C79.5634 38.2388 79.17 37.8454 78.6845 37.8454C78.569 37.8454 78.4547 37.8681 78.3481 37.9123C78.2415 37.9565 78.1446 38.0212 78.0629 38.1028C77.9813 38.1844 77.9166 38.2813 77.8724 38.388C77.8283 38.4946 77.8055 38.6089 77.8056 38.7243V39.5581C77.0683 52.0612 77.099 51.5069 77.099 51.5576C77.099 51.8471 76.8543 52.0918 76.5648 52.0918H71.3926V51.8644C71.6761 51.6749 73.7766 50.7487 75.3018 48.2777C76.9911 45.5518 76.7558 43.2478 76.7588 41.0166C76.7588 40.1226 76.0615 39.3956 75.1711 39.3615H75.1709C68.653 39.1123 65.3084 35.4178 64.4384 34.2912C64.3071 34.1207 64.1396 33.9813 63.948 33.8831C63.7565 33.785 63.5456 33.7304 63.3304 33.7233C63.115 33.7163 62.9006 33.7566 62.7025 33.8415C62.5044 33.9264 62.3274 34.0538 62.184 34.2147C60.8162 35.7544 59.269 36.2416 58.4685 36.3949C57.7433 36.5339 57.2167 37.1716 57.2167 37.9114C57.2199 43.4357 57.2099 43.1314 57.2247 43.52C57.2483 46.9509 59.5573 50.3993 62.5487 51.8471V52.0915H57.302C57.0125 52.0915 56.7679 51.8468 56.7679 51.5572C56.7679 51.506 56.7973 52.0385 56.0599 39.5319C56.0588 39.5158 56.0574 39.4997 56.0556 39.4836C56.0452 39.3923 55.0743 30.3379 60.1579 29.2208C60.2843 29.193 60.403 29.1377 60.5055 29.0587C60.608 28.9798 60.6918 28.8792 60.751 28.7641C60.7722 28.7231 62.9404 24.6746 69.9348 26.0367C72.7187 26.5675 76.8843 29.8826 77.6667 34.7616C77.7434 35.2408 78.1937 35.5662 78.6737 35.4903C78.7877 35.472 78.8969 35.4315 78.9952 35.371C79.0935 35.3105 79.1789 35.2312 79.2466 35.1377C79.3142 35.0442 79.3628 34.9383 79.3896 34.826C79.4163 34.7137 79.4206 34.5973 79.4024 34.4833C79.0639 32.1723 77.9135 29.7326 76.174 27.8813L76.1115 27.8145C74.3661 25.966 71.7685 24.6029 70.2702 24.3112C67.9125 23.8523 64.5074 23.6791 61.6726 25.4604C60.4517 26.2273 59.7399 27.1122 59.4105 27.5972C56.817 28.3336 55.118 30.6462 54.4861 34.3128C54.0345 36.9329 54.2747 39.3645 54.3066 39.6584C55.1299 52.3719 54.8475 51.8961 55.3242 52.7106C52.8265 52.309 50.2844 53.0229 48.3579 54.844L47.5896 54.6526L45.452 53.6296V51.8456C49.8053 49.6858 50.5019 45.3652 50.5439 45.2858C50.7001 44.5819 50.7793 43.863 50.7801 43.142V43.1334C52.3673 42.7876 53.5471 41.5283 53.5471 40.0314C53.5471 39.4114 53.344 38.8325 52.994 38.3418C53.0084 36.0303 53.0738 34.6706 52.5788 32.8476C52.4521 32.525 52.0373 30.4832 50.1975 28.2886L50.1889 28.2781C46.7888 24.2342 40.9247 22.6906 35.6647 25.2537C31.6737 27.2438 29.0232 31.3484 29.0232 35.9839C29.0234 36.7553 29.023 38.2484 29.0236 38.342C27.7169 40.1732 28.8326 42.6098 31.2381 43.1336C31.3184 47.1188 33.462 50.2635 36.6082 51.8665V53.6095L34.3828 54.6748C31.9583 55.3535 30.0772 55.5309 28.6373 56.5986C26.8932 57.9302 26.2821 59.1367 26.0252 61.2465C23.9402 80.1059 23.9889 78.9609 24.0032 79.8005C23.9777 82.0403 25.5434 83.9944 28.1339 83.9944L35.8173 83.9943C36.3028 83.9943 36.6962 83.6009 36.6962 83.1154C36.6962 82.6299 36.3028 82.2365 35.8173 82.2365H32.5148L33.3864 65.7518C33.3987 65.519 33.318 65.2909 33.1621 65.1176C33.0062 64.9443 32.7878 64.8401 32.555 64.8278C32.0721 64.8008 31.6566 65.1743 31.631 65.6591L31.4477 69.1262L26.9645 68.656L26.9791 68.5254C27.8839 61.3604 27.5587 60.2748 28.768 58.8369L28.7781 58.8248C30.2505 57.0861 32.5852 57.0477 34.3928 56.4836L37.0947 59.9422C37.7407 60.7696 38.9677 60.8436 39.7086 60.0973L40.1301 59.6726V63.9258C40.1301 64.4113 40.5235 64.8047 41.009 64.8047C41.4945 64.8047 41.8879 64.4113 41.8879 63.9258V59.6727L42.3092 60.0973C42.4837 60.273 42.6936 60.4096 42.925 60.498C43.1563 60.5864 43.4039 60.6245 43.6511 60.6099C43.8984 60.5952 44.1397 60.5281 44.359 60.413C44.5783 60.2979 44.7706 60.1375 44.9232 59.9423L46.1582 58.3615C45.6461 60.0111 45.8258 61.2504 45.788 61.9511C44.1032 63.5296 44.9624 66.119 47.3419 66.6471C47.6807 68.6301 48.8842 70.4081 50.7868 71.4498V72.5187C47.6862 73.3538 45.2478 73.3881 44.1443 76.0175C44.1014 76.1205 44.0638 76.2258 44.0316 76.3327C43.9884 76.4713 43.9516 76.6119 43.9213 76.7539C43.786 77.4092 43.7807 77.8237 43.2644 82.2365H39.9189C39.8035 82.2365 39.6892 82.2592 39.5825 82.3034C39.4759 82.3475 39.379 82.4123 39.2974 82.4939C39.2157 82.5755 39.151 82.6724 39.1068 82.779C39.0627 82.8857 39.04 83 39.04 83.1154C39.04 83.6009 39.4334 83.9943 39.9189 83.9943H44.0596L44.0616 83.9944L44.064 83.9943H63.9373L63.9398 83.9944L63.9418 83.9943H67.6617C68.1472 83.9943 68.5406 83.6009 68.5406 83.1154C68.5406 82.6299 68.1472 82.2365 67.6617 82.2365H64.7368C64.2596 78.7313 64.3049 77.2253 63.907 76.1455C63.378 74.7026 62.0906 73.7377 60.6959 73.3852L57.2145 72.5185V71.4344C59.0452 70.4306 60.2975 68.6501 60.6313 66.6469C60.6434 66.6401 62.6777 66.2685 63.0208 64.3494C63.1185 63.8146 63.0442 63.2496 62.7749 62.7274C64.4483 62.387 66.0843 61.1502 66.9686 60.3837C71.448 64.2692 75.4709 63.7826 75.7993 57.0289C76.4438 57.229 79.4891 57.6953 80.0978 60.6396C80.1435 60.8604 80.1959 61.1736 80.2288 61.4415L81.0357 68.6535L76.5876 69.1201L76.4047 65.6588C76.3792 65.174 75.9597 64.7994 75.4807 64.8274C75.2479 64.8397 75.0295 64.944 74.8736 65.1173C74.7177 65.2906 74.6371 65.5187 74.6493 65.7515L75.5207 82.2361H71.763C71.2775 82.2361 70.8841 82.6295 70.8841 83.1151C70.8841 83.6006 71.2775 83.994 71.763 83.994L79.8664 83.9941C81.0504 83.9941 82.0667 83.5981 82.8058 82.8489C83.5657 82.0788 84.0109 80.9385 83.9973 79.7976C84.0088 79.0572 84.0691 80.1 81.9746 61.2377ZM31.3009 70.8783L30.7303 82.2365H28.1338C26.6052 82.2365 25.7945 81.2361 25.7607 79.7838C25.7502 79.1615 25.7836 79.3721 26.769 70.4028L31.3009 70.8783ZM50.78 41.2988V38.7646C52.1222 39.3184 52.1225 40.745 50.78 41.2988ZM31.2379 41.2991C29.8948 40.7452 29.8946 39.3182 31.2379 38.7644V41.2991ZM31.9976 36.8378C31.5832 36.849 31.173 36.9233 30.7811 37.0583C30.7922 36.1385 30.7243 35.3051 30.9628 34.0572C31.0647 33.7848 31.452 30.7945 34.2172 28.337C34.5874 28.0504 35.1954 27.4109 36.7633 26.6763C40.1418 25.1334 44.2749 25.3763 47.8002 28.3372C50.1844 30.4552 50.7059 32.8576 50.881 33.3028C51.3715 35.1118 51.1996 36.3898 51.2365 37.0584C50.8448 36.9234 50.4347 36.849 50.0205 36.838C49.7976 36.712 49.5913 36.5375 49.429 36.3588C48.2307 34.9781 49.2471 33.9089 47.9617 32.8361C47.0554 32.0798 46.1875 32.3688 44.5835 32.5785C37.1134 33.384 35.6145 31.5358 34.0562 32.8361C33.5966 33.2197 33.3073 33.7743 33.2876 34.4623C33.2172 36.3285 32.0738 36.7519 31.9976 36.8378ZM32.9957 43.1422V38.2889C33.6609 37.8094 34.1502 37.4209 34.5879 36.4921C34.839 35.9614 35.0224 35.2921 35.0472 34.4622C35.0529 34.2346 35.2669 34.0607 35.5 34.098C44.781 35.3336 46.9423 33.341 46.9707 34.4617C47.0264 36.4268 48.1066 37.5075 48.1239 37.5365C48.4465 37.8928 48.6535 38.0232 49.0218 38.2887C49.0219 39.2028 49.0216 42.2591 49.0221 42.3561C48.964 42.6099 49.6465 47.5987 44.6839 50.2646H44.684C44.6715 50.2698 43.3912 51.0054 41.5395 51.1357C41.0742 51.1662 40.6163 51.1461 40.6281 51.1464C36.2795 50.9435 32.9957 47.3369 32.9957 43.1422ZM38.4713 58.849L36.1047 55.8195L37.2952 55.2497L39.7497 57.5607L38.4713 58.849ZM41.009 56.332L38.3659 53.8435V52.5498C40.1185 53.0427 41.9611 53.0221 43.6731 52.5437V53.8235L41.009 56.332ZM43.5467 58.849L42.2684 57.5607L44.7369 55.2363L45.9248 55.8049L43.5467 58.849ZM47.2473 64.7487C46.4453 64.2905 46.5139 63.4611 47.2473 63.0441V64.7487ZM61.1432 48.624C58.3622 45.534 58.9769 42.7466 58.9743 38.086C59.982 37.8665 61.7034 37.267 63.2639 35.6368C64.5128 37.1438 68.2378 40.8205 75.0008 41.1143C74.997 43.4504 75.0074 43.0334 74.9929 43.5051L74.9926 43.5024C74.9137 43.8181 75.0753 46.721 72.1202 49.2953L72.0188 49.378C69.2683 51.6 65.4439 51.6964 62.6446 49.8763C62.4677 49.7617 61.342 48.8143 61.1432 48.624ZM57.9871 74.5226L58.0246 74.532C59.8 75.0167 60.3973 75.0176 61.1622 75.4757C62.7636 76.4352 62.3118 77.6189 62.9581 82.2366H60.6187L60.5146 80.3396C60.488 79.8548 60.0736 79.4828 59.589 79.5102C59.4737 79.5166 59.3609 79.5455 59.2568 79.5955C59.1528 79.6454 59.0596 79.7153 58.9826 79.8013C58.9056 79.8873 58.8462 79.9875 58.808 80.0964C58.7697 80.2053 58.7533 80.3207 58.7596 80.4359L58.8584 82.2365H49.1669L49.2657 80.4359C49.272 80.3207 49.2556 80.2053 49.2174 80.0964C49.1791 79.9875 49.1198 79.8872 49.0428 79.8012C48.9658 79.7153 48.8726 79.6453 48.7685 79.5954C48.6644 79.5455 48.5516 79.5165 48.4363 79.5102C48.321 79.5037 48.2056 79.52 48.0966 79.5582C47.9877 79.5964 47.8873 79.6557 47.8013 79.7327C47.7153 79.8098 47.6454 79.903 47.5955 80.0072C47.5456 80.1113 47.5168 80.2243 47.5107 80.3396L47.4066 82.2366H45.0434C45.6257 77.2409 45.3792 76.3504 46.8392 75.4757C47.5687 75.0382 48.0428 75.0449 50.014 74.5226C51.0182 75.6586 52.4678 76.3216 54.0006 76.3216C55.5334 76.3216 56.9831 75.6587 57.9871 74.5226ZM52.5443 72.1021C52.9132 72.1823 53.2882 72.2315 53.6652 72.2492C53.6866 72.2502 53.7075 72.2509 53.7288 72.2515L53.7914 72.2536C54.4266 72.2705 55.0435 72.1991 55.4567 72.0958C55.5002 72.4335 55.2639 73.4158 55.9988 73.9484C55.4095 74.3493 54.7132 74.5637 54.0005 74.5637C53.2877 74.5637 52.5914 74.3493 52.0021 73.9484C52.7349 73.4173 52.5025 72.4248 52.5443 72.1021ZM58.9587 65.8037C58.9553 65.865 58.9509 65.9261 58.9456 65.9872C58.7783 67.7836 57.6544 69.3015 56.101 70.0292C56.0614 70.0341 53.4113 71.4523 50.86 69.3948C50.8318 69.3556 49.3216 68.2983 49.0468 66.1653C48.9721 65.5924 49.0199 65.1352 49.0051 62.6927C52.8643 63.491 55.5541 61.9411 56.731 60.4042C57.5113 61.5532 58.3997 62.0469 58.9677 62.2563C58.9661 66.019 58.9731 65.5424 58.9587 65.8037ZM60.4272 61.1061C60.1319 60.7429 59.7837 60.6752 59.6444 60.6309C59.2571 60.5071 58.5133 60.1185 57.8819 58.9069C57.3883 57.96 56.0314 57.9955 55.5783 58.9485C55.0642 60.0295 52.7184 61.9099 48.748 60.8241C48.3637 60.7194 47.9486 60.8071 47.633 61.0951C47.6036 61.0991 47.5746 61.1043 47.5456 61.109C47.5479 60.5318 47.5525 60.5097 47.552 60.5215C47.7775 55.1576 54.1864 52.3801 58.2531 55.9758C58.2526 55.9803 58.2633 55.9798 58.2629 55.9843C59.3019 56.9081 60.012 58.1025 60.3127 59.5876C60.4604 60.3607 60.4208 60.9852 60.4272 61.1061ZM59.6208 54.8496C59.1785 54.4304 58.8257 54.1585 58.3333 53.85H62.5487V54.1208L59.6208 54.8496ZM60.7257 64.75V63.0442C61.0388 63.2233 61.3044 63.5336 61.3044 63.8971C61.3044 64.3534 60.9582 64.5756 60.7257 64.75ZM62.185 61.0502C62.1672 60.917 62.2809 59.6922 61.7307 58.1051C62.6554 58.8973 63.7311 59.4688 64.8909 59.7796C64.0523 60.3818 63.0403 60.9567 62.185 61.0502ZM62.1711 56.0262L63.3115 55.7423C63.3632 55.7294 63.4136 55.7119 63.4621 55.69C63.9749 55.4575 64.3062 54.8661 64.3062 54.1835L64.3064 52.539C65.8966 52.9904 67.5765 53.078 69.6346 52.5487V54.1835C69.6346 54.8662 69.966 55.4577 70.479 55.69C70.5275 55.7119 70.5778 55.7295 70.6294 55.7423L71.767 56.0256C69.1882 59.043 64.7554 59.0494 62.1711 56.0262ZM72.5652 60.9575C71.5466 61.3825 69.9411 60.428 69.0355 59.7731C70.9016 59.2557 72.4885 58.1236 73.6289 56.4891L74.0575 56.5958C73.9843 59.0448 73.4616 60.5837 72.5652 60.9575ZM81.5547 81.6147C80.6229 82.5591 79.3579 82.1242 77.281 82.2365L76.6806 70.8781L81.2312 70.4007L82.2214 79.2502C82.2955 80.1242 82.1756 80.9854 81.5547 81.6147Z" fill="white"/>
</g>
<defs>
<clipPath id="clip0_134_3264">
<rect width="60" height="60" fill="white" transform="translate(24 24)"/>
</clipPath>
</defs>
</svg>
