<svg width="108" height="108" viewBox="0 0 108 108" fill="none" xmlns="http://www.w3.org/2000/svg">
<circle cx="54" cy="54" r="53.5" stroke="white"/>
<path d="M40.8164 62.1099C40.5833 62.1099 40.3598 62.2025 40.1949 62.3673C40.0301 62.5321 39.9375 62.7557 39.9375 62.9888V64.5708C39.9375 64.8039 40.0301 65.0275 40.1949 65.1923C40.3598 65.3571 40.5833 65.4497 40.8164 65.4497C41.0495 65.4497 41.2731 65.3571 41.4379 65.1923C41.6027 65.0275 41.6953 64.8039 41.6953 64.5708V62.9888C41.6953 62.7557 41.6027 62.5321 41.4379 62.3673C41.2731 62.2025 41.0495 62.1099 40.8164 62.1099Z" fill="white"/>
<path d="M81.2241 73.781H79.8011V49.3956C82.1583 48.9784 83.9548 46.9165 83.9548 44.4414V41.0575C83.9548 41.0402 83.9531 41.0234 83.9522 41.0064C83.9516 40.9969 83.9516 40.9874 83.9508 40.9779C83.9478 40.9436 83.9428 40.9095 83.9358 40.8758C83.9354 40.8738 83.9347 40.872 83.9343 40.8701C83.9273 40.8384 83.9185 40.8071 83.908 40.7763C83.9054 40.7686 83.9024 40.7609 83.8996 40.7532C83.8899 40.7271 83.8791 40.7015 83.867 40.6765C83.8648 40.6719 83.8634 40.6671 83.8611 40.6627L79.975 32.9343V28.892C79.975 27.8488 79.1262 27 78.083 27H38.1159C37.8828 27 37.6593 27.0926 37.4945 27.2574C37.3296 27.4223 37.237 27.6458 37.237 27.8789C37.237 28.112 37.3296 28.3356 37.4945 28.5004C37.6593 28.6652 37.8828 28.7578 38.1159 28.7578H78.083C78.1569 28.7578 78.2172 28.818 78.2172 28.892V32.2721H29.7829V28.892C29.7829 28.818 29.8431 28.7578 29.917 28.7578H34.0266C34.2597 28.7578 34.4832 28.6652 34.648 28.5004C34.8129 28.3356 34.9055 28.112 34.9055 27.8789C34.9055 27.6458 34.8129 27.4223 34.648 27.2574C34.4832 27.0926 34.2597 27 34.0266 27H29.917C28.8738 27 28.025 27.8488 28.025 28.892V32.9343L24.139 40.6627C24.1368 40.6672 24.1352 40.672 24.1331 40.6765C24.121 40.7015 24.1102 40.7271 24.1005 40.7532C24.0977 40.761 24.0947 40.7686 24.0921 40.7763C24.0816 40.8071 24.0728 40.8384 24.0659 40.8701L24.0643 40.8758C24.0573 40.9092 24.0524 40.9432 24.0493 40.9779C24.0485 40.9874 24.0485 40.9969 24.0479 41.0064C24.047 41.0234 24.0454 41.0402 24.0454 41.0575V44.4414C24.0454 46.9164 25.8418 48.9784 28.1991 49.3956V73.781H26.7759C25.2452 73.781 24 75.0264 24 76.5571V79.337C24 80.1182 24.6355 80.7537 25.4167 80.7537H82.5833C83.3645 80.7537 84 80.1182 84 79.337V76.5571C84 75.0264 82.7548 73.781 81.2241 73.781ZM82.1968 44.4415C82.1968 46.2472 80.7278 47.7163 78.922 47.7163C77.1163 47.7163 75.6472 46.2472 75.6472 44.4415V41.9365H82.1968V44.4415ZM78.5584 34.03L81.65 40.1786H75.3866L73.1783 34.03H78.5584ZM71.3105 34.03L73.5187 40.1786H67.1707L65.8457 34.03H71.3105ZM73.8895 41.9364V44.4414C73.8895 46.2471 72.4205 47.7162 70.6147 47.7162C68.809 47.7162 67.3399 46.2471 67.3399 44.4414V41.9364H73.8895ZM64.0475 34.03L65.3726 40.1786H58.9718L58.5301 34.03H64.0475ZM65.5821 41.9364V44.4414C65.5821 46.2471 64.113 47.7162 62.3074 47.7162C60.5018 47.7162 59.0326 46.2471 59.0326 44.4414V41.9364H65.5821ZM51.2323 34.03H56.7676L57.2093 40.1786H50.7906L51.2323 34.03ZM50.7252 41.9364H57.2748V44.4414C57.2748 46.2471 55.8057 47.7162 54 47.7162C52.1943 47.7162 50.7252 46.2471 50.7252 44.4414V41.9364ZM54 49.474C55.7231 49.474 57.2462 48.6032 58.1537 47.2788C59.0612 48.6032 60.5843 49.474 62.3074 49.474C64.0305 49.474 65.5536 48.6032 66.461 47.2788C67.3685 48.6032 68.8916 49.474 70.6147 49.474C72.3379 49.474 73.8609 48.6032 74.7684 47.2788C75.518 48.3727 76.6879 49.1557 78.0432 49.3956V73.781H44.9573V54.2501C44.9573 53.3487 44.224 52.6153 43.3226 52.6153H33.1614C32.26 52.6153 31.5266 53.3487 31.5266 54.2501V73.781H29.9569V49.3956C31.3123 49.1557 32.4821 48.3727 33.2317 47.2788C34.1392 48.6032 35.6623 49.474 37.3854 49.474C39.1085 49.474 40.6316 48.6032 41.5391 47.2788C42.4466 48.6032 43.9697 49.474 45.6927 49.474C47.4157 49.474 48.9389 48.6032 49.8464 47.2788C50.7538 48.6032 52.2769 49.474 54 49.474ZM43.1995 54.3731V73.781H33.2844V54.3731H43.1995ZM34.1105 44.4415V41.9365H40.6601V44.4415C40.6601 46.2472 39.191 47.7163 37.3853 47.7163C35.5795 47.7163 34.1105 46.2471 34.1105 44.4415ZM43.9525 34.03H49.4699L49.0282 40.1786H42.6274L43.9525 34.03ZM42.4179 41.9364H48.9674V44.4414C48.9674 46.2471 47.4983 47.7162 45.6926 47.7162C43.8868 47.7162 42.4179 46.2471 42.4179 44.4414V41.9364ZM42.1542 34.03L40.8292 40.1786H34.4811L36.6894 34.03H42.1542ZM29.4416 34.03H34.8217L32.6134 40.1786H26.35L29.4416 34.03ZM25.8032 44.4415V41.9365H32.3528V44.4415C32.3528 46.2472 30.8837 47.7163 29.078 47.7163C27.2722 47.7163 25.8032 46.2471 25.8032 44.4415ZM25.7578 78.9959V76.5569C25.7578 75.9955 26.2145 75.5388 26.7759 75.5388H81.2239C81.7854 75.5388 82.2421 75.9955 82.2421 76.5569V78.9959H25.7578Z" fill="white"/>
<path d="M74.0125 52.6154H63.2648C63.0317 52.6154 62.8082 52.708 62.6434 52.8728C62.4785 53.0376 62.3859 53.2612 62.3859 53.4943C62.3859 53.7274 62.4785 53.9509 62.6434 54.1157C62.8082 54.2806 63.0317 54.3732 63.2648 54.3732H73.8895V68.2054H48.5508V54.3732H59.127C59.3601 54.3732 59.5836 54.2806 59.7484 54.1157C59.9133 53.9509 60.0059 53.7274 60.0059 53.4943C60.0059 53.2612 59.9133 53.0376 59.7484 52.8728C59.5836 52.708 59.3601 52.6154 59.127 52.6154H48.4277C47.5263 52.6154 46.793 53.3486 46.793 54.2501V68.3286C46.793 69.23 47.5263 69.9633 48.4277 69.9633H74.0125C74.9139 69.9633 75.6472 69.23 75.6472 68.3286V54.2501C75.6472 53.3487 74.9139 52.6154 74.0125 52.6154Z" fill="white"/>
</svg>
