<svg width="107" height="76" viewBox="0 0 107 76" fill="none" xmlns="http://www.w3.org/2000/svg">
<mask id="path-1-outside-1_64_2514" maskUnits="userSpaceOnUse" x="4.58476" y="0.440798" width="103.649" height="52.1663" fill="black">
<rect fill="white" x="4.58476" y="0.440798" width="103.649" height="52.1663"/>
<path d="M24.0637 45.0253C12.1114 45.7668 12.8187 31.9161 19.5051 31.5013C20.5444 31.4368 20.7045 31.7747 20.7302 32.1904C20.7354 34.5202 22.4963 37.1236 26.5844 36.87C33.1322 36.4637 34.015 29.9403 33.912 28.2774C33.8756 27.6884 33.2887 27.7596 33.1498 28.3246C32.2751 32.1697 29.7708 34.4117 26.9646 34.5858C23.8812 34.7771 22.066 32.4205 21.8579 29.06C21.5898 24.7294 25.0234 17.8391 28.6492 15.7361C22.8507 15.8872 19.3788 17.6676 19.5655 20.6817C19.6277 21.6864 20.2292 22.4142 20.9914 22.3669C21.7094 23.8525 20.0923 26.9438 16.7318 27.1523C13.891 27.3285 12.2683 25.273 12.1224 22.9171C11.7727 17.27 17.5027 12.0804 27.0992 11.485C31.0833 11.2379 33.6613 12.4342 32.7026 15.4846C29.6964 16.9231 27.2924 21.9064 27.4768 24.8858C27.5669 26.3409 28.1424 27.2094 29.3203 27.1364C32.1265 26.9622 33.3192 23.7582 34.5218 18.467C35.8764 12.262 37.5072 11.6392 38.6158 11.5704C40.0362 11.4823 41.0231 12.2557 41.0872 13.8515C41.2655 16.1706 38.9667 18.9215 38.0833 22.628C37.6384 24.4293 37.1199 26.1656 36.8169 29.6969C36.0171 38.6844 32.0666 44.5287 24.0637 45.0253ZM45.3857 36.2252C35.6506 36.8292 37.4535 19.3284 47.3964 18.7115C50.6184 18.5116 52.1675 20.5022 52.3091 22.7887C52.4657 25.3178 50.459 28.2941 47.0639 28.5047C46.0938 28.5649 45.152 28.519 44.3273 28.1181C44.0762 27.9945 43.7362 28.12 43.7641 28.5703C43.8391 29.7829 45.506 30.3055 47.4808 30.183C49.8366 30.0368 52.5677 28.6501 53.9787 26.1629C54.4815 25.2971 55.9316 26.2504 55.5913 26.9323C52.8923 32.7686 49.4045 35.9758 45.3857 36.2252ZM46.0022 25.9623C47.3533 25.8784 48.0837 24.755 48.03 23.8889C47.9828 23.1267 47.4224 22.5007 46.3484 22.5673C44.9973 22.6512 44.228 23.7074 44.286 24.6428C44.3332 25.405 44.8936 26.031 46.0022 25.9623ZM67.4099 25.3296C67.9127 24.4638 69.2936 25.4214 69.0225 26.099C68.1769 28.1686 65.7437 34.9273 59.2998 35.3271C53.2024 35.7054 52.1037 29.757 53.9679 26.1636L54.0936 25.9471C56.3474 22.4686 58.4875 17.154 61.4669 16.9691C63.6149 16.8359 64.7314 18.0186 64.7654 19.1294C64.8687 20.2359 62.3461 20.4967 62.4319 21.8825C62.4727 22.5407 64.4805 25.1984 65.0638 27.3184C66.101 27.2193 66.7814 26.412 67.4099 25.3296ZM57.6107 28.2677C59.135 28.1731 59.9325 27.0108 59.8445 25.5903C59.7931 24.7589 59.4623 23.9099 58.9193 23.0046C58.6489 22.5693 58.3718 22.5865 58.0879 23.0562C57.3011 24.3918 56.3151 25.8789 55.5805 26.933C55.632 27.7645 56.4674 28.3386 57.6107 28.2677ZM80.8075 24.4984C81.3104 23.6326 82.6912 24.5902 82.4202 25.2678C81.5746 27.3374 79.1413 34.0961 72.6974 34.4959C66.6 34.8742 65.5014 28.9258 67.3655 25.3324L67.4912 25.1159C69.745 21.6374 71.8851 16.3228 74.8646 16.1379C77.0125 16.0046 78.1291 17.1874 78.1631 18.2982C78.2664 19.4046 75.7438 19.6655 75.8296 21.0513C75.8703 21.7095 77.8781 24.3672 78.4615 26.4872C79.4987 26.3881 80.179 25.5807 80.8075 24.4984ZM71.0083 27.4365C72.5327 27.3419 73.3301 26.1796 73.2422 24.7591C73.1907 23.9276 72.8599 23.0787 72.317 22.1734C72.0466 21.7381 71.7694 21.7553 71.4855 22.225C70.6988 23.5606 69.7127 25.0477 68.9781 26.1018C69.0296 26.9333 69.8651 27.5074 71.0083 27.4365ZM84.2264 33.8154C81.8706 33.9616 80.525 31.8888 80.3341 28.8055C80.0359 23.9898 82.5649 16.5296 88.5237 16.1599C91.2953 15.988 91.2382 17.3131 92.139 17.2572C93.2822 17.1862 93.4432 15.8547 95.0715 15.7537C95.9723 15.6978 96.3162 16.1981 96.3634 16.9603C96.4449 18.2768 95.6107 19.4067 94.9729 21.4633C93.9516 24.0655 94.4185 25.4276 95.9429 25.3331C97.1208 25.26 97.9461 24.548 98.5704 23.3964C99.0386 22.5327 100.489 23.486 100.183 24.1658C98.6849 27.493 97.1142 33.0158 93.2686 33.2544C90.8782 33.4027 89.7383 31.2824 89.976 28.3811L89.8374 28.3897C88.6254 31.2819 86.6862 33.6628 84.2264 33.8154ZM87.2468 26.429C89.0483 26.3173 90.1493 24.4405 90.0592 22.9854C89.9884 21.8421 89.2526 21.1922 88.144 21.261C86.3425 21.3728 85.3044 23.1413 85.3987 24.6657C85.4717 25.8436 86.1728 26.4957 87.2468 26.429Z"/>
</mask>
<path d="M24.0637 45.0253C12.1114 45.7668 12.8187 31.9161 19.5051 31.5013C20.5444 31.4368 20.7045 31.7747 20.7302 32.1904C20.7354 34.5202 22.4963 37.1236 26.5844 36.87C33.1322 36.4637 34.015 29.9403 33.912 28.2774C33.8756 27.6884 33.2887 27.7596 33.1498 28.3246C32.2751 32.1697 29.7708 34.4117 26.9646 34.5858C23.8812 34.7771 22.066 32.4205 21.8579 29.06C21.5898 24.7294 25.0234 17.8391 28.6492 15.7361C22.8507 15.8872 19.3788 17.6676 19.5655 20.6817C19.6277 21.6864 20.2292 22.4142 20.9914 22.3669C21.7094 23.8525 20.0923 26.9438 16.7318 27.1523C13.891 27.3285 12.2683 25.273 12.1224 22.9171C11.7727 17.27 17.5027 12.0804 27.0992 11.485C31.0833 11.2379 33.6613 12.4342 32.7026 15.4846C29.6964 16.9231 27.2924 21.9064 27.4768 24.8858C27.5669 26.3409 28.1424 27.2094 29.3203 27.1364C32.1265 26.9622 33.3192 23.7582 34.5218 18.467C35.8764 12.262 37.5072 11.6392 38.6158 11.5704C40.0362 11.4823 41.0231 12.2557 41.0872 13.8515C41.2655 16.1706 38.9667 18.9215 38.0833 22.628C37.6384 24.4293 37.1199 26.1656 36.8169 29.6969C36.0171 38.6844 32.0666 44.5287 24.0637 45.0253ZM45.3857 36.2252C35.6506 36.8292 37.4535 19.3284 47.3964 18.7115C50.6184 18.5116 52.1675 20.5022 52.3091 22.7887C52.4657 25.3178 50.459 28.2941 47.0639 28.5047C46.0938 28.5649 45.152 28.519 44.3273 28.1181C44.0762 27.9945 43.7362 28.12 43.7641 28.5703C43.8391 29.7829 45.506 30.3055 47.4808 30.183C49.8366 30.0368 52.5677 28.6501 53.9787 26.1629C54.4815 25.2971 55.9316 26.2504 55.5913 26.9323C52.8923 32.7686 49.4045 35.9758 45.3857 36.2252ZM46.0022 25.9623C47.3533 25.8784 48.0837 24.755 48.03 23.8889C47.9828 23.1267 47.4224 22.5007 46.3484 22.5673C44.9973 22.6512 44.228 23.7074 44.286 24.6428C44.3332 25.405 44.8936 26.031 46.0022 25.9623ZM67.4099 25.3296C67.9127 24.4638 69.2936 25.4214 69.0225 26.099C68.1769 28.1686 65.7437 34.9273 59.2998 35.3271C53.2024 35.7054 52.1037 29.757 53.9679 26.1636L54.0936 25.9471C56.3474 22.4686 58.4875 17.154 61.4669 16.9691C63.6149 16.8359 64.7314 18.0186 64.7654 19.1294C64.8687 20.2359 62.3461 20.4967 62.4319 21.8825C62.4727 22.5407 64.4805 25.1984 65.0638 27.3184C66.101 27.2193 66.7814 26.412 67.4099 25.3296ZM57.6107 28.2677C59.135 28.1731 59.9325 27.0108 59.8445 25.5903C59.7931 24.7589 59.4623 23.9099 58.9193 23.0046C58.6489 22.5693 58.3718 22.5865 58.0879 23.0562C57.3011 24.3918 56.3151 25.8789 55.5805 26.933C55.632 27.7645 56.4674 28.3386 57.6107 28.2677ZM80.8075 24.4984C81.3104 23.6326 82.6912 24.5902 82.4202 25.2678C81.5746 27.3374 79.1413 34.0961 72.6974 34.4959C66.6 34.8742 65.5014 28.9258 67.3655 25.3324L67.4912 25.1159C69.745 21.6374 71.8851 16.3228 74.8646 16.1379C77.0125 16.0046 78.1291 17.1874 78.1631 18.2982C78.2664 19.4046 75.7438 19.6655 75.8296 21.0513C75.8703 21.7095 77.8781 24.3672 78.4615 26.4872C79.4987 26.3881 80.179 25.5807 80.8075 24.4984ZM71.0083 27.4365C72.5327 27.3419 73.3301 26.1796 73.2422 24.7591C73.1907 23.9276 72.8599 23.0787 72.317 22.1734C72.0466 21.7381 71.7694 21.7553 71.4855 22.225C70.6988 23.5606 69.7127 25.0477 68.9781 26.1018C69.0296 26.9333 69.8651 27.5074 71.0083 27.4365ZM84.2264 33.8154C81.8706 33.9616 80.525 31.8888 80.3341 28.8055C80.0359 23.9898 82.5649 16.5296 88.5237 16.1599C91.2953 15.988 91.2382 17.3131 92.139 17.2572C93.2822 17.1862 93.4432 15.8547 95.0715 15.7537C95.9723 15.6978 96.3162 16.1981 96.3634 16.9603C96.4449 18.2768 95.6107 19.4067 94.9729 21.4633C93.9516 24.0655 94.4185 25.4276 95.9429 25.3331C97.1208 25.26 97.9461 24.548 98.5704 23.3964C99.0386 22.5327 100.489 23.486 100.183 24.1658C98.6849 27.493 97.1142 33.0158 93.2686 33.2544C90.8782 33.4027 89.7383 31.2824 89.976 28.3811L89.8374 28.3897C88.6254 31.2819 86.6862 33.6628 84.2264 33.8154ZM87.2468 26.429C89.0483 26.3173 90.1493 24.4405 90.0592 22.9854C89.9884 21.8421 89.2526 21.1922 88.144 21.261C86.3425 21.3728 85.3044 23.1413 85.3987 24.6657C85.4717 25.8436 86.1728 26.4957 87.2468 26.429Z" fill="white"/>
<path d="M20.7302 32.1904L26.9015 32.176L26.9011 31.992L26.8897 31.8083L20.7302 32.1904ZM33.1498 28.3246L27.157 26.8522L27.1442 26.9041L27.1323 26.9562L33.1498 28.3246ZM28.6492 15.7361L31.7449 21.0745L28.4892 9.56682L28.6492 15.7361ZM20.9914 22.3669L26.5478 19.681L24.7451 15.9508L20.61 16.2073L20.9914 22.3669ZM32.7026 15.4846L35.3658 21.0514L37.7855 19.8935L38.5899 17.3345L32.7026 15.4846ZM34.5218 18.467L40.5396 19.834L40.5454 19.8084L40.551 19.7826L34.5218 18.467ZM41.0872 13.8515L34.9208 14.0997L34.9254 14.2128L34.934 14.3256L41.0872 13.8515ZM38.0833 22.628L44.0745 24.1072L44.0806 24.0827L44.0864 24.0581L38.0833 22.628ZM36.8169 29.6969L42.9639 30.2432L42.9648 30.2335L42.9656 30.2238L36.8169 29.6969ZM23.6823 38.8657C21.9045 38.976 21.3006 38.5247 21.21 38.4527C21.0872 38.3551 20.9547 38.1828 20.906 37.8364C20.8811 37.6594 20.8876 37.4802 20.9173 37.3256C20.9477 37.1679 20.9901 37.0972 20.9854 37.1049C20.9439 37.173 20.5643 37.6188 19.8865 37.6608L19.1237 25.3418C15.1027 25.5912 12.1273 27.9239 10.4461 30.6825C8.82368 33.3448 8.26077 36.5507 8.68378 39.5574C9.11645 42.6329 10.6303 45.8101 13.5275 48.1139C16.457 50.4433 20.2467 51.4453 24.4451 51.1848L23.6823 38.8657ZM19.8865 37.6608C19.8396 37.6638 19.517 37.6835 19.0367 37.597C18.5432 37.5081 17.6979 37.2729 16.8219 36.6234C14.7491 35.0866 14.5914 32.9066 14.5707 32.5726L26.8897 31.8083C26.8433 31.0585 26.5926 28.5017 24.1736 26.7081C22.1772 25.228 19.9932 25.2878 19.1237 25.3418L19.8865 37.6608ZM14.5589 32.2048C14.5648 34.8616 15.5656 37.7645 17.8605 39.9593C20.2512 42.2456 23.492 43.245 26.9658 43.0295L26.203 30.7104C25.8616 30.7316 25.7837 30.6809 25.8845 30.7143C25.9953 30.7509 26.1913 30.8469 26.3919 31.0387C26.783 31.4127 26.9007 31.849 26.9015 32.176L14.5589 32.2048ZM26.9658 43.0295C32.7115 42.673 36.3035 39.4174 38.1651 35.9901C39.824 32.9358 40.1835 29.7041 40.0715 27.8952L27.7525 28.6595C27.7434 28.5121 27.7533 28.496 27.7437 28.6158C27.7356 28.7169 27.717 28.8693 27.6802 29.0531C27.6026 29.4403 27.4757 29.8121 27.3194 30.0998C27.1717 30.3716 27.05 30.477 26.9903 30.5184C26.9651 30.5358 26.7787 30.6747 26.203 30.7104L26.9658 43.0295ZM40.0715 27.8952C40.0025 26.7802 39.6236 25.166 38.3262 23.7644C36.9343 22.2605 34.9658 21.5505 33.0302 21.7205C29.3935 22.0399 27.6297 24.929 27.157 26.8522L39.1427 29.7971C38.8089 31.1553 37.4079 33.7262 34.1085 34.016C32.3415 34.1711 30.5353 33.5185 29.2679 32.1493C28.0952 30.8823 27.8033 29.48 27.7525 28.6595L40.0715 27.8952ZM27.1323 26.9562C26.9181 27.8981 26.5838 28.3055 26.4656 28.4212C26.3651 28.5195 26.4081 28.4372 26.5832 28.4263L27.346 40.7454C33.57 40.3592 37.852 35.4746 39.1673 29.6931L27.1323 26.9562ZM26.5832 28.4263C26.6459 28.4224 26.8886 28.4241 27.2179 28.5579C27.5504 28.6929 27.8069 28.8962 27.9703 29.0824C28.1212 29.2542 28.1438 29.3532 28.1191 29.2842C28.0939 29.214 28.0385 29.0192 28.0174 28.6779L15.6984 29.4421C15.8601 32.0524 16.6777 34.9293 18.6957 37.2273C20.8706 39.7041 23.9752 40.9545 27.346 40.7454L26.5832 28.4263ZM28.0174 28.6779C27.9774 28.0314 28.2818 26.3608 29.3001 24.3478C30.3417 22.2886 31.424 21.2606 31.7449 21.0745L25.5534 10.3977C22.2486 12.3146 19.8012 15.7832 18.2865 18.7776C16.7486 21.8181 15.4703 25.7581 15.6984 29.4421L28.0174 28.6779ZM28.4892 9.56682C25.1472 9.65389 21.7299 10.2058 18.9493 11.6953C15.9161 13.3202 13.122 16.4784 13.406 21.0638L25.725 20.2995C25.7589 20.847 25.6081 21.4993 25.2476 22.0478C24.9345 22.5242 24.6485 22.6438 24.7765 22.5752C24.9054 22.5061 25.2805 22.3423 26.006 22.1923C26.7159 22.0456 27.6467 21.9357 28.8092 21.9054L28.4892 9.56682ZM13.406 21.0638C13.5645 23.624 15.6182 28.8834 21.3728 28.5264L20.61 16.2073C22.4846 16.091 23.9444 17.0003 24.741 17.9485C25.4806 18.8287 25.6893 19.7238 25.725 20.2995L13.406 21.0638ZM15.4349 25.0528C14.8663 23.8762 14.9705 22.8882 15.0563 22.4707C15.1529 22.0006 15.3252 21.7088 15.4449 21.5485C15.7211 21.1782 16.1002 21.0082 16.3504 20.9927L17.1132 33.3118C20.7239 33.0878 23.5918 31.2679 25.3372 28.9286C26.778 26.9973 28.3171 23.3419 26.5478 19.681L15.4349 25.0528ZM16.3504 20.9927C16.4281 20.9879 16.6595 20.9913 16.9738 21.1075C17.2893 21.2241 17.5756 21.4132 17.8008 21.6405C18.2333 22.077 18.2775 22.4637 18.2819 22.535L5.9629 23.2993C6.11319 25.7264 7.0417 28.3187 9.03216 30.3279C11.1264 32.4418 14.0078 33.5045 17.1132 33.3118L16.3504 20.9927ZM18.2819 22.535C18.2546 22.0943 18.396 21.2011 19.7437 20.1192C21.1309 19.0056 23.6597 17.8816 27.4806 17.6446L26.7178 5.32551C20.9421 5.68384 15.8077 7.45233 12.0182 10.4942C8.18928 13.5678 5.64052 18.0928 5.9629 23.2993L18.2819 22.535ZM27.4806 17.6446C28.1526 17.6029 28.591 17.6351 28.8211 17.6716C29.084 17.7134 28.8685 17.7266 28.4456 17.4579C27.935 17.1337 27.241 16.4583 26.9052 15.3917C26.594 14.4029 26.7912 13.7112 26.8153 13.6347L38.5899 17.3345C39.0933 15.7328 39.3278 13.7477 38.6783 11.6844C38.0044 9.54326 36.5966 8.01229 35.0633 7.03855C32.3539 5.3178 29.078 5.17908 26.7178 5.32551L27.4806 17.6446ZM30.0393 9.91782C26.8396 11.449 24.6872 14.3675 23.4415 16.7161C22.1815 19.0914 21.1299 22.2409 21.3174 25.268L33.6363 24.5037C33.6437 24.6234 33.6201 24.452 33.7489 23.9768C33.8677 23.5387 34.0694 23.0182 34.345 22.4987C34.6222 21.9761 34.9196 21.5572 35.1761 21.2725C35.4508 20.9677 35.5406 20.9678 35.3658 21.0514L30.0393 9.91782ZM21.3174 25.268C21.3971 26.5552 21.7223 28.5722 23.1139 30.3666C24.7952 32.5346 27.2916 33.4454 29.7017 33.2959L28.9389 20.9768C29.4367 20.9459 30.161 21 30.9615 21.34C31.782 21.6886 32.4226 22.2281 32.8674 22.8017C33.2861 23.3415 33.4714 23.8301 33.5508 24.0961C33.5925 24.2358 33.6134 24.3421 33.6238 24.4057C33.6292 24.4384 33.6323 24.4631 33.634 24.4789C33.6358 24.4947 33.6363 24.5032 33.6363 24.5037L21.3174 25.268ZM29.7017 33.2959C34.0146 33.0283 36.581 30.1991 37.9558 27.6463C39.199 25.3378 39.9442 22.4536 40.5396 19.834L28.504 17.0999C28.2183 18.357 27.9587 19.3742 27.702 20.2019C27.4406 21.045 27.2291 21.5348 27.089 21.7949C26.9473 22.0581 26.9978 21.8617 27.365 21.5768C27.8183 21.2251 28.4026 21.0101 28.9389 20.9768L29.7017 33.2959ZM40.551 19.7826C40.8428 18.4464 41.1168 17.5651 41.3323 17.0082C41.552 16.4405 41.6634 16.3344 41.5711 16.4557C41.4501 16.6145 41.0989 17.0038 40.4588 17.324C39.8135 17.6467 39.24 17.7149 38.9972 17.73L38.2344 5.41088C37.4373 5.46033 36.2442 5.63217 34.9391 6.28493C33.6391 6.93509 32.5876 7.88085 31.7511 8.97962C30.2124 11.0006 29.2312 13.7678 28.4925 17.1513L40.551 19.7826ZM38.9972 17.73C38.5298 17.7589 37.3733 17.6758 36.2744 16.7052C35.1461 15.7085 34.9384 14.5383 34.9208 14.0997L47.2535 13.6034C47.1718 11.569 46.4388 9.21411 44.4459 7.45383C42.4824 5.71955 40.1222 5.29376 38.2344 5.41088L38.9972 17.73ZM34.934 14.3256C34.8951 13.819 35.0096 13.5797 34.9365 13.8095C34.8593 14.0522 34.7074 14.4226 34.3769 15.1409C33.8108 16.3716 32.6955 18.6159 32.0802 21.1979L44.0864 24.0581C44.3544 22.9337 44.8303 21.9492 45.5898 20.2981C46.1112 19.1647 47.4736 16.4112 47.2403 13.3775L34.934 14.3256ZM32.0921 21.1488C31.6578 22.9069 31.0184 25.089 30.6682 29.1701L42.9656 30.2238C43.2214 27.2421 43.6189 25.9517 44.0745 24.1072L32.0921 21.1488ZM30.6699 29.1506C30.3298 32.9721 29.3719 35.3602 28.2966 36.7231C27.3874 37.8755 26.0837 38.7167 23.6823 38.8657L24.4451 51.1848C30.0466 50.8373 34.7195 48.508 37.9863 44.3673C41.0869 40.4371 42.5042 35.4092 42.9639 30.2432L30.6699 29.1506ZM44.3273 28.1181L41.6025 33.6556L41.6155 33.662L41.6285 33.6684L44.3273 28.1181ZM53.9787 26.1629L48.6421 23.0642L48.6265 23.0912L48.6111 23.1183L53.9787 26.1629ZM55.5913 26.9323L50.0696 24.1769L50.0286 24.2591L49.9901 24.3424L55.5913 26.9323ZM45.0043 30.0656C44.7222 30.0831 44.771 30.0247 44.9805 30.1271C45.1899 30.2295 45.3039 30.368 45.328 30.4042C45.3353 30.4151 45.2478 30.2834 45.1809 29.938C45.1149 29.5972 45.0876 29.137 45.1468 28.5937C45.2708 27.4555 45.7194 26.3993 46.2818 25.7166C46.7749 25.1179 47.2431 24.9042 47.7778 24.8711L47.015 12.552C37.8539 13.1204 33.5299 21.2623 32.8768 27.2587C32.5309 30.4347 32.992 34.1554 35.0613 37.2563C37.3544 40.6926 41.1908 42.6686 45.7671 42.3847L45.0043 30.0656ZM47.7778 24.8711C47.9205 24.8622 47.8359 24.8898 47.6036 24.8146C47.3587 24.7354 47.0597 24.5764 46.7832 24.3168C46.2233 23.7911 46.1553 23.2635 46.1496 23.1709L58.4686 22.4066C58.3213 20.0274 57.4079 17.3613 55.2326 15.3186C52.9759 13.1995 50.0167 12.3658 47.015 12.552L47.7778 24.8711ZM46.1496 23.1709C46.1345 22.9275 46.175 22.7776 46.1966 22.7148C46.2195 22.6479 46.2474 22.602 46.2799 22.5629C46.3163 22.5193 46.3776 22.4627 46.4695 22.4144C46.5709 22.3612 46.6556 22.3469 46.6825 22.3452L47.4453 34.6643C54.565 34.2225 58.8153 28.0055 58.4686 22.4066L46.1496 23.1709ZM46.6825 22.3452C46.547 22.3536 46.4563 22.3555 46.3984 22.3549C46.3409 22.3544 46.3328 22.3517 46.3625 22.3552C46.4238 22.3624 46.6821 22.4006 47.0261 22.5678L41.6285 33.6684C43.9191 34.782 46.1753 34.7431 47.4453 34.6643L46.6825 22.3452ZM47.0521 22.5805C45.2919 21.7145 42.8147 21.5241 40.6163 22.9302C38.1642 24.4986 37.4887 27.0813 37.6046 28.9525L49.9235 28.1882C50.0115 29.609 49.4921 31.9038 47.2658 33.3278C45.2932 34.5894 43.1116 34.3981 41.6025 33.6556L47.0521 22.5805ZM37.6046 28.9525C37.8503 32.9205 40.8191 34.8941 42.6343 35.614C44.4478 36.3333 46.3532 36.4361 47.8622 36.3425L47.0994 24.0234C46.6336 24.0523 46.7182 23.9551 47.1858 24.1406C47.447 24.2442 48.0574 24.5302 48.6667 25.2009C49.3479 25.9507 49.8498 26.9979 49.9235 28.1882L37.6046 28.9525ZM47.8622 36.3425C52.0269 36.0841 56.7783 33.7343 59.3463 29.2076L48.6111 23.1183C48.5085 23.2991 48.3062 23.5262 47.9651 23.726C47.606 23.9364 47.2668 24.013 47.0994 24.0234L47.8622 36.3425ZM59.3153 29.2617C58.4127 30.8158 56.8192 31.7778 55.1521 31.9577C53.7558 32.1084 52.6869 31.6902 52.0752 31.3462C51.4545 30.997 50.7161 30.3977 50.1661 29.4132C49.5871 28.377 48.9847 26.3508 50.0696 24.1769L61.113 29.6878C62.3681 27.1729 61.712 24.7719 60.9412 23.3922C60.1993 22.0642 59.1307 21.1528 58.1271 20.5883C57.1327 20.0289 55.6282 19.4921 53.8292 19.6862C51.7594 19.9096 49.796 21.0772 48.6421 23.0642L59.3153 29.2617ZM49.9901 24.3424C47.6154 29.4772 45.5813 30.0298 45.0043 30.0656L45.7671 42.3847C53.2276 41.9218 58.1691 36.06 61.1926 29.5222L49.9901 24.3424ZM46.3836 32.1218C51.2708 31.8186 54.4454 27.6388 54.1895 23.5067L41.8705 24.271C41.7871 22.9243 42.2799 21.8725 42.8706 21.1878C43.5592 20.3896 44.56 19.8685 45.6208 19.8027L46.3836 32.1218ZM54.1895 23.5067C54.079 21.7213 53.3259 19.7385 51.6216 18.258C49.8916 16.7552 47.7918 16.2946 45.967 16.4078L46.7298 28.7269C45.979 28.7735 44.6965 28.5925 43.5269 27.5766C42.3831 26.583 41.9339 25.2943 41.8705 24.271L54.1895 23.5067ZM45.967 16.4078C41.3499 16.6943 37.8496 20.5535 38.1265 25.025L50.4455 24.2607C50.6065 26.8614 48.6447 28.6081 46.7298 28.7269L45.967 16.4078ZM38.1265 25.025C38.2373 26.8153 38.9963 28.819 40.7367 30.3062C42.4901 31.8045 44.5941 32.2328 46.3836 32.1218L45.6208 19.8027C46.3017 19.7605 47.5711 19.9102 48.7554 20.9222C49.9266 21.923 50.3818 23.2326 50.4455 24.2607L38.1265 25.025ZM67.4099 25.3296L62.0733 22.2309L62.0733 22.2309L67.4099 25.3296ZM69.0225 26.099L74.7353 28.4327L74.7439 28.4116L74.7524 28.3905L69.0225 26.099ZM53.9679 26.1636L48.6313 23.0649L48.5575 23.1919L48.4899 23.3222L53.9679 26.1636ZM54.0936 25.9471L48.9145 22.5918L48.8326 22.7182L48.757 22.8484L54.0936 25.9471ZM64.7654 19.1294L58.597 19.3189L58.6029 19.5117L58.6209 19.7037L64.7654 19.1294ZM65.0638 27.3184L59.1137 28.9565L60.4892 33.9551L65.6502 33.4618L65.0638 27.3184ZM58.9193 23.0046L64.2119 19.83L64.1871 19.7888L64.1618 19.7479L58.9193 23.0046ZM58.0879 23.0562L52.8065 19.8643L52.7884 19.8943L52.7706 19.9244L58.0879 23.0562ZM55.5805 26.933L50.5175 23.4049L49.2881 25.1691L49.421 27.3151L55.5805 26.933ZM72.7465 28.4284C71.8809 29.9189 70.3227 30.934 68.5812 31.1242C67.1279 31.2829 66.0264 30.8299 65.422 30.4812C64.7958 30.1199 64.1233 29.5433 63.6132 28.6611C63.1101 27.7911 62.4353 25.951 63.2927 23.8076L74.7524 28.3905C75.7453 25.9083 74.9995 23.6943 74.298 22.4813C73.5895 21.256 72.5912 20.367 71.5909 19.7899C70.6122 19.2253 69.0882 18.6529 67.243 18.8544C65.1097 19.0873 63.1903 20.3074 62.0733 22.2309L72.7465 28.4284ZM63.3098 23.7653C62.81 24.9886 62.281 26.3776 61.3482 27.6042C60.4999 28.7199 59.763 29.1152 58.9184 29.1676L59.6812 41.4867C65.2805 41.1393 68.9821 37.9553 71.1728 35.0743C73.279 32.3042 74.3895 29.2791 74.7353 28.4327L63.3098 23.7653ZM58.9184 29.1676C58.6606 29.1836 58.5539 29.1586 58.5634 29.1606C58.5785 29.1639 58.6768 29.1894 58.8153 29.2728C58.9538 29.3561 59.0771 29.4641 59.1731 29.5787C59.2654 29.689 59.3099 29.7781 59.3268 29.8177C59.3427 29.855 59.3348 29.8494 59.3258 29.7919C59.3169 29.7346 59.3104 29.6471 59.3171 29.5361C59.3238 29.4253 59.3424 29.3135 59.3699 29.2113C59.3977 29.1084 59.4282 29.039 59.4458 29.005L48.4899 23.3222C46.8049 26.5705 46.3674 30.8864 47.9697 34.6518C48.8162 36.6412 50.2717 38.5371 52.4491 39.8477C54.6264 41.1584 57.1268 41.6451 59.6812 41.4867L58.9184 29.1676ZM59.3044 29.2623L59.4301 29.0459L48.757 22.8484L48.6313 23.0649L59.3044 29.2623ZM59.2726 29.3025C59.9533 28.2519 60.6069 27.0922 61.1397 26.1571C61.7163 25.1448 62.1873 24.3302 62.6453 23.6422C63.1208 22.9278 63.3917 22.6463 63.4607 22.5853C63.5193 22.5335 62.9576 23.0598 61.8483 23.1287L61.0855 10.8096C58.4866 10.9708 56.54 12.2308 55.2889 13.3362C54.0483 14.4325 53.0847 15.7317 52.371 16.8039C51.6398 17.9024 50.967 19.0803 50.4153 20.0486C49.8198 21.094 49.3607 21.9031 48.9145 22.5918L59.2726 29.3025ZM61.8483 23.1287C61.7262 23.1362 61.012 23.1305 60.1833 22.503C59.3827 21.8969 58.6421 20.792 58.597 19.3189L70.9338 18.9398C70.7618 13.3199 65.5906 10.5301 61.0855 10.8096L61.8483 23.1287ZM58.6209 19.7037C58.5165 18.5859 58.7649 17.5475 59.1919 16.7089C59.5787 15.9493 60.0439 15.4823 60.2686 15.2769C60.3924 15.1637 60.4925 15.0855 60.5493 15.0429C60.5791 15.0205 60.6022 15.0041 60.6167 14.9939C60.6312 14.9838 60.6395 14.9783 60.6398 14.9781C60.64 14.978 60.6347 14.9815 60.6219 14.9897C60.6089 14.9979 60.5912 15.0091 60.5662 15.0247C60.4869 15.0742 60.4748 15.0811 60.3514 15.1577C60.1835 15.2619 59.8758 15.4538 59.5473 15.691C59.2181 15.9288 58.753 16.2929 58.2823 16.7927C57.8044 17.3002 57.248 18.0241 56.8358 18.9899C56.4076 19.9934 56.2008 21.1075 56.2724 22.2646L68.5914 21.5003C68.6416 22.311 68.4949 23.1139 68.1878 23.8334C67.8967 24.5154 67.5225 24.983 67.2674 25.2538C67.0196 25.517 66.8179 25.6643 66.7722 25.6973C66.7274 25.7296 66.7234 25.7288 66.8591 25.6446C66.9351 25.5975 67.2166 25.4259 67.46 25.2645C67.7175 25.0938 68.1469 24.7967 68.5961 24.386C69.0414 23.9789 69.6861 23.2992 70.1907 22.3081C70.7355 21.238 71.0402 19.9495 70.91 18.555L58.6209 19.7037ZM56.2724 22.2646C56.3475 23.4773 56.7624 24.421 56.8608 24.6505C57.0304 25.0462 57.2178 25.4038 57.3521 25.6517C57.601 26.1111 57.9736 26.7438 58.1904 27.122C58.46 27.5923 58.6837 27.9991 58.8614 28.3648C58.9477 28.5425 59.011 28.6857 59.0555 28.797C59.1011 28.911 59.1151 28.9617 59.1137 28.9565L71.014 25.6804C70.7281 24.6416 70.3178 23.6997 69.9631 22.9697C69.5989 22.2202 69.2088 21.5239 68.8984 20.9825C68.5353 20.349 68.3618 20.0614 68.2045 19.7712C68.1357 19.6442 68.155 19.6696 68.2048 19.7857C68.2315 19.848 68.297 20.0055 68.3657 20.2312C68.425 20.4259 68.5532 20.8834 68.5914 21.5003L56.2724 22.2646ZM65.6502 33.4618C70.0042 33.0457 72.0707 29.592 72.7465 28.4284L62.0733 22.2309C61.8661 22.5878 61.9057 22.4343 62.2026 22.16C62.3798 21.9963 62.671 21.7674 63.085 21.5663C63.5126 21.3588 63.9882 21.2218 64.4774 21.175L65.6502 33.4618ZM57.9921 34.4272C60.3505 34.2809 62.6163 33.2253 64.1758 31.2499C65.6641 29.3647 66.1236 27.14 66.004 25.2082L53.6851 25.9725C53.6534 25.4612 53.7582 24.5278 54.4887 23.6025C55.2903 22.5871 56.3952 22.1599 57.2293 22.1082L57.9921 34.4272ZM66.004 25.2082C65.8681 23.0137 65.0256 21.1869 64.2119 19.83L53.6268 26.1792C53.6866 26.279 53.725 26.3512 53.7481 26.3983C53.7712 26.4452 53.7757 26.4601 53.7703 26.4453C53.759 26.4144 53.702 26.2469 53.6851 25.9725L66.004 25.2082ZM64.1618 19.7479C63.8428 19.2343 61.9571 16.2939 58.1273 16.5315C54.6526 16.7471 53.0494 19.4624 52.8065 19.8643L63.3692 26.2481C63.2505 26.4446 62.9328 26.9386 62.3441 27.4495C61.7343 27.9787 60.566 28.7466 58.8901 28.8506C55.3374 29.071 53.7255 26.3396 53.6769 26.2613L64.1618 19.7479ZM52.7706 19.9244C52.0895 21.0808 51.1972 22.4296 50.5175 23.4049L60.6434 30.4611C61.433 29.3281 62.5128 27.7028 63.4051 26.188L52.7706 19.9244ZM49.421 27.3151C49.7739 33.0144 55.127 34.605 57.9921 34.4272L57.2293 22.1082C57.7301 22.0771 58.6361 22.1551 59.6079 22.8024C60.6594 23.5029 61.6327 24.8175 61.74 26.5509L49.421 27.3151ZM80.8075 24.4984L75.471 21.3997L75.471 21.3997L80.8075 24.4984ZM82.4202 25.2678L88.1329 27.6015L88.1415 27.5804L88.15 27.5593L82.4202 25.2678ZM67.3655 25.3324L62.0289 22.2337L61.9552 22.3607L61.8876 22.491L67.3655 25.3324ZM67.4912 25.1159L62.3122 21.7606L62.2303 21.8869L62.1546 22.0172L67.4912 25.1159ZM78.1631 18.2982L71.9947 18.4877L72.0006 18.6805L72.0185 18.8725L78.1631 18.2982ZM78.4615 26.4872L72.5114 28.1252L73.8868 33.1238L79.0479 32.6306L78.4615 26.4872ZM72.317 22.1734L77.6095 18.9988L77.5848 18.9576L77.5594 18.9167L72.317 22.1734ZM71.4855 22.225L66.2041 19.0331L66.186 19.0631L66.1683 19.0932L71.4855 22.225ZM68.9781 26.1018L63.9152 22.5737L62.6858 24.3379L62.8186 26.4839L68.9781 26.1018ZM86.1441 27.5971C85.2785 29.0877 83.7203 30.1028 81.9789 30.293C80.5255 30.4517 79.4241 29.9987 78.8196 29.6499C78.1935 29.2887 77.521 28.7121 77.0108 27.8299C76.5078 26.9599 75.833 25.1198 76.6903 22.9764L88.15 27.5593C89.1429 25.0771 88.3971 22.8631 87.6957 21.6501C86.9871 20.4248 85.9888 19.5358 84.9885 18.9587C84.0098 18.3941 82.4859 17.8217 80.6406 18.0231C78.5073 18.2561 76.588 19.4762 75.471 21.3997L86.1441 27.5971ZM76.7074 22.9341C76.2076 24.1573 75.6786 25.5464 74.7459 26.773C73.8975 27.8887 73.1606 28.284 72.316 28.3364L73.0788 40.6555C78.6781 40.3081 82.3798 37.1241 84.5704 34.2431C86.6767 31.473 87.7871 28.4479 88.1329 27.6015L76.7074 22.9341ZM72.316 28.3364C72.0582 28.3524 71.9516 28.3273 71.9611 28.3294C71.9762 28.3327 72.0744 28.3582 72.2129 28.4416C72.3514 28.5249 72.4748 28.6329 72.5707 28.7474C72.6631 28.8577 72.7076 28.9468 72.7245 28.9865C72.7403 29.0238 72.7324 29.0181 72.7235 28.9607C72.7146 28.9034 72.7081 28.8159 72.7148 28.7049C72.7215 28.594 72.74 28.4823 72.7676 28.3801C72.7953 28.2772 72.8258 28.2078 72.8435 28.1738L61.8876 22.491C60.2025 25.7392 59.765 30.0552 61.3673 33.8206C62.2138 35.8099 63.6694 37.7059 65.8467 39.0165C68.0241 40.3272 70.5245 40.8139 73.0788 40.6555L72.316 28.3364ZM72.7021 28.4311L72.8278 28.2147L62.1546 22.0172L62.0289 22.2337L72.7021 28.4311ZM72.6702 28.4713C73.351 27.4207 74.0046 26.261 74.5373 25.3259C75.114 24.3136 75.585 23.499 76.0429 22.8109C76.5185 22.0966 76.7894 21.815 76.8584 21.7541C76.917 21.7023 76.3552 22.2286 75.246 22.2974L74.4832 9.97838C71.8842 10.1396 69.9377 11.3996 68.6866 12.505C67.4459 13.6012 66.4823 14.9005 65.7686 15.9727C65.0374 17.0712 64.3646 18.2491 63.813 19.2174C63.2175 20.2628 62.7584 21.0719 62.3122 21.7606L72.6702 28.4713ZM75.246 22.2974C75.1238 22.305 74.4096 22.2993 73.5809 21.6718C72.7804 21.0657 72.0398 19.9608 71.9947 18.4877L84.3315 18.1086C84.1594 12.4887 78.9882 9.69887 74.4832 9.97838L75.246 22.2974ZM72.0185 18.8725C71.9142 17.7547 72.1626 16.7163 72.5895 15.8777C72.9763 15.1181 73.4415 14.6511 73.6663 14.4457C73.79 14.3325 73.8902 14.2543 73.9469 14.2117C73.9768 14.1893 73.9999 14.1728 74.0144 14.1627C74.0288 14.1526 74.0371 14.1471 74.0374 14.1469C74.0377 14.1467 74.0323 14.1503 74.0195 14.1585C74.0066 14.1667 73.9889 14.1779 73.9638 14.1935C73.8845 14.243 73.8725 14.2499 73.749 14.3265C73.5812 14.4307 73.2734 14.6226 72.945 14.8598C72.6157 15.0976 72.1506 15.4617 71.6799 15.9615C71.2021 16.469 70.6456 17.1929 70.2335 18.1587C69.8053 19.1621 69.5984 20.2763 69.6701 21.4334L81.9891 20.6691C82.0393 21.4798 81.8925 22.2826 81.5854 23.0022C81.2944 23.6842 80.9201 24.1518 80.6651 24.4226C80.4172 24.6858 80.2156 24.8331 80.1699 24.8661C80.1251 24.8984 80.1211 24.8976 80.2568 24.8134C80.3327 24.7663 80.6143 24.5947 80.8576 24.4333C81.1151 24.2626 81.5445 23.9655 81.9937 23.5548C82.4391 23.1477 83.0837 22.468 83.5884 21.4769C84.1332 20.4068 84.4378 19.1183 84.3077 17.7238L72.0185 18.8725ZM69.6701 21.4334C69.7452 22.6461 70.1601 23.5898 70.2584 23.8193C70.4281 24.215 70.6155 24.5726 70.7497 24.8204C70.9987 25.2799 71.3712 25.9126 71.588 26.2908C71.8576 26.7611 72.0814 27.1679 72.259 27.5336C72.3454 27.7113 72.4086 27.8545 72.4532 27.9658C72.4988 28.0797 72.5128 28.1304 72.5114 28.1252L84.4116 24.8492C84.1258 23.8104 83.7154 22.8685 83.3607 22.1385C82.9966 21.389 82.6064 20.6927 82.2961 20.1513C81.9329 19.5178 81.7594 19.2302 81.6022 18.94C81.5334 18.813 81.5527 18.8384 81.6024 18.9545C81.6292 19.0168 81.6947 19.1743 81.7633 19.3999C81.8226 19.5947 81.9509 20.0522 81.9891 20.6691L69.6701 21.4334ZM79.0479 32.6306C83.4018 32.2145 85.4684 28.7608 86.1441 27.5971L75.471 21.3997C75.2637 21.7566 75.3033 21.6031 75.6002 21.3288C75.7774 21.1651 76.0686 20.9361 76.4827 20.7351C76.9103 20.5275 77.3858 20.3906 77.8751 20.3438L79.0479 32.6306ZM71.3897 33.596C73.7482 33.4497 76.0139 32.3941 77.5734 30.4187C79.0617 28.5335 79.5213 26.3087 79.4017 24.377L67.0827 25.1413C67.051 24.6299 67.1559 23.6965 67.8863 22.7713C68.688 21.7558 69.7928 21.3287 70.6269 21.277L71.3897 33.596ZM79.4017 24.377C79.2658 22.1825 78.4233 20.3557 77.6095 18.9988L67.0244 25.348C67.0842 25.4477 67.1226 25.52 67.1458 25.5671C67.1688 25.614 67.1734 25.6289 67.1679 25.6141C67.1566 25.5831 67.0997 25.4157 67.0827 25.1413L79.4017 24.377ZM77.5594 18.9167C77.2404 18.4031 75.3548 15.4627 71.5249 15.7003C68.0503 15.9158 66.4471 18.6312 66.2041 19.0331L76.7669 25.4169C76.6481 25.6134 76.3305 26.1073 75.7417 26.6183C75.1319 27.1475 73.9637 27.9154 72.2877 28.0193C68.735 28.2398 67.1232 25.5084 67.0745 25.4301L77.5594 18.9167ZM66.1683 19.0932C65.4871 20.2496 64.5949 21.5984 63.9152 22.5737L74.0411 29.6299C74.8306 28.4969 75.9104 26.8716 76.8027 25.3568L66.1683 19.0932ZM62.8186 26.4839C63.1715 32.1832 68.5246 33.7738 71.3897 33.596L70.6269 21.277C71.1278 21.2459 72.0337 21.3239 73.0055 21.9712C74.057 22.6717 75.0303 23.9863 75.1376 25.7196L62.8186 26.4839ZM94.9729 21.4633L100.718 23.7175L100.8 23.5068L100.867 23.2905L94.9729 21.4633ZM98.5704 23.3964L93.145 20.4559L93.145 20.4559L98.5704 23.3964ZM100.183 24.1658L105.81 26.6989L105.811 26.6964L100.183 24.1658ZM89.976 28.3811L96.1267 28.8843L96.7087 21.7802L89.5946 22.2216L89.976 28.3811ZM89.8374 28.3897L89.456 22.2302L85.6281 22.4677L84.1458 26.0051L89.8374 28.3897ZM83.845 27.6559C84.2229 27.6324 84.763 27.6945 85.3315 27.9686C85.888 28.2369 86.2422 28.597 86.4304 28.8516C86.6046 29.0871 86.6263 29.2137 86.5971 29.1173C86.5695 29.0265 86.5171 28.8024 86.4936 28.4233L74.1746 29.1876C74.312 31.4059 74.8904 34.0062 76.5065 36.1914C78.3309 38.6584 81.2203 40.1851 84.6078 39.975L83.845 27.6559ZM86.4936 28.4233C86.4106 27.0827 86.759 25.1611 87.5282 23.7182C88.2706 22.3257 88.8113 22.3253 88.9051 22.3195L88.1423 10.0004C82.2772 10.3643 78.5741 14.2788 76.6369 17.9127C74.7265 21.4962 73.9595 25.7126 74.1746 29.1876L86.4936 28.4233ZM88.9051 22.3195C89.118 22.3062 88.9833 22.3408 88.6401 22.2554C88.2379 22.1553 87.856 21.9684 87.5596 21.7666C87.453 21.694 87.3871 21.6382 87.4613 21.6978C87.4694 21.7043 87.7627 21.9467 88.0767 22.1635C88.4399 22.4143 89.0431 22.7877 89.8556 23.0633C90.7117 23.3537 91.6128 23.473 92.5204 23.4167L91.7576 11.0976C92.4399 11.0553 93.1458 11.1454 93.8217 11.3747C94.4542 11.5892 94.8923 11.8696 95.0909 12.0067C95.2403 12.1099 95.3694 12.2179 95.1988 12.0806C95.0942 11.9965 94.8351 11.7874 94.5062 11.5634C93.765 11.0589 92.8214 10.5764 91.6223 10.278C90.4821 9.99421 89.3152 9.92761 88.1423 10.0004L88.9051 22.3195ZM92.5204 23.4167C94.1225 23.3173 95.3919 22.7386 96.3115 22.1156C96.7233 21.8366 97.0419 21.5646 97.2344 21.3939C97.3326 21.3068 97.4186 21.2274 97.4739 21.1762C97.5446 21.1106 97.5599 21.0962 97.5925 21.0663C97.6969 20.9706 97.4422 21.225 96.998 21.4626C96.4819 21.7388 95.935 21.8833 95.4529 21.9132L94.6901 9.59414C93.3938 9.67456 92.2162 10.0234 91.1763 10.5798C90.2082 11.0978 89.5364 11.7084 89.2541 11.9671C89.1901 12.0258 89.1106 12.0999 89.0872 12.1215C89.0485 12.1574 89.0411 12.1638 89.0455 12.16C89.0502 12.1558 89.179 12.04 89.3895 11.8974C89.9064 11.5472 90.7271 11.1616 91.7576 11.0976L92.5204 23.4167ZM95.4529 21.9132C94.704 21.9597 93.0036 21.8042 91.5818 20.3206C90.344 19.029 90.2224 17.641 90.2039 17.3424L102.523 16.5782C102.457 15.5175 102.14 13.4981 100.493 11.7798C98.6625 9.86951 96.3397 9.49179 94.6901 9.59414L95.4529 21.9132ZM90.2039 17.3424C90.156 16.5687 90.4187 16.1093 90.1981 16.6678C90.1501 16.7894 90.094 16.9257 90.013 17.1211C89.9376 17.3032 89.8414 17.535 89.7425 17.7818C89.5397 18.2876 89.3039 18.9095 89.0786 19.6361L100.867 23.2905C101.095 22.5563 101.254 22.2737 101.678 21.2007C102.013 20.351 102.652 18.6684 102.523 16.5782L90.2039 17.3424ZM89.2283 19.2092C88.5959 20.8204 87.8247 23.3951 88.5523 26.0445C88.9771 27.5914 89.9463 29.2239 91.6765 30.3317C93.3236 31.3863 95.0459 31.5719 96.3243 31.4926L95.5615 19.1735C96.0777 19.1415 97.17 19.1923 98.3327 19.9368C99.5786 20.7345 100.209 21.8816 100.454 22.7744C100.669 23.557 100.584 24.0824 100.578 24.1206C100.567 24.1955 100.578 24.0726 100.718 23.7175L89.2283 19.2092ZM96.3243 31.4926C100.372 31.2414 102.774 28.5905 103.996 26.3369L93.145 20.4559C93.105 20.5297 93.2512 20.2235 93.7085 19.8727C94.2415 19.4638 94.9131 19.2137 95.5615 19.1735L96.3243 31.4926ZM103.996 26.3369C103.109 27.9721 101.467 29.0025 99.7304 29.1917C98.3011 29.3474 97.224 28.9092 96.641 28.5812C96.0364 28.2412 95.336 27.6723 94.7986 26.7533C94.254 25.8221 93.5567 23.8544 94.5547 21.6352L105.811 26.6964C106.962 24.1373 106.198 21.7955 105.453 20.5214C104.715 19.2594 103.68 18.3787 102.693 17.8233C101.727 17.28 100.219 16.7229 98.3953 16.9215C96.2646 17.1536 94.2655 18.3888 93.145 20.4559L103.996 26.3369ZM94.5559 21.6327C94.1525 22.5285 93.6428 23.8066 93.3267 24.5547C92.9372 25.4768 92.6006 26.1996 92.2695 26.7696C91.4463 28.1872 91.5539 27.1776 92.8872 27.0949L93.65 39.414C98.8289 39.0926 101.645 35.2024 102.943 32.9671C104.195 30.8111 105.411 27.5863 105.81 26.6989L94.5559 21.6327ZM92.8872 27.0949C93.2503 27.0724 93.8498 27.1269 94.5086 27.4618C95.1665 27.7961 95.6021 28.267 95.8494 28.6572C96.2683 29.3182 96.0709 29.5656 96.1267 28.8843L83.8253 27.878C83.6434 30.098 83.897 32.8562 85.4241 35.2656C87.1918 38.0546 90.2258 39.6264 93.65 39.414L92.8872 27.0949ZM89.5946 22.2216L89.456 22.2302L90.2188 34.5493L90.3574 34.5407L89.5946 22.2216ZM84.1458 26.0051C83.9504 26.4712 83.7451 26.8696 83.5454 27.1928C83.3434 27.5197 83.1743 27.7259 83.0641 27.8398C82.8263 28.0857 83.0838 27.7031 83.845 27.6559L84.6078 39.975C87.8289 39.7751 90.2858 38.1258 91.9355 36.4201C93.5701 34.7299 94.7288 32.6841 95.5291 30.7744L84.1458 26.0051ZM87.6282 32.5886C90.7327 32.3959 93.0076 30.6698 94.3335 28.8673C95.6012 27.1438 96.361 24.9017 96.2187 22.6033L83.8997 23.3676C83.8475 22.5242 84.1019 21.948 84.3913 21.5546C84.7387 21.0822 85.5624 20.3503 86.8654 20.2695L87.6282 32.5886ZM96.2187 22.6033C96.106 20.7822 95.3981 18.6743 93.6083 17.0713C91.8096 15.4604 89.6177 14.9864 87.7626 15.1015L88.5254 27.4206C87.7789 27.4669 86.5092 27.2835 85.3733 26.2661C84.2462 25.2567 83.9417 24.0454 83.8997 23.3676L96.2187 22.6033ZM87.7626 15.1015C81.5409 15.4875 79.0034 21.2384 79.2393 25.0478L91.5582 24.2835C91.6006 24.9675 91.4143 25.5666 91.0415 26.0764C90.6027 26.6764 89.7268 27.346 88.5254 27.4206L87.7626 15.1015ZM79.2393 25.0478C79.345 26.755 79.9656 28.8484 81.7025 30.4941C83.4925 32.1902 85.7254 32.7066 87.6282 32.5886L86.8654 20.2695C87.6942 20.2181 89.0396 20.4418 90.1922 21.534C91.2919 22.5759 91.5255 23.7543 91.5582 24.2835L79.2393 25.0478Z" fill="#15206D" mask="url(#path-1-outside-1_64_2514)"/>
<path d="M14.4109 10.1026C14.4108 10.1026 14.4084 10.1019 14.404 10.1004C14.4088 10.1019 14.411 10.1026 14.4109 10.1026ZM13.554 11.6542C14.3402 10.8057 15.0782 10.4999 15.4896 10.3418C15.4985 10.3384 15.5112 10.3336 15.527 10.3276C15.6161 10.294 15.8023 10.2239 15.9324 10.1629C15.9342 10.1621 15.9364 10.1611 15.939 10.1599C16.0004 10.1316 16.2925 9.9967 16.5612 9.7315C16.7157 9.57898 17.0121 9.23887 17.1256 8.70064C17.256 8.08272 17.0796 7.53296 16.826 7.15442C16.61 6.83198 16.3545 6.65051 16.2347 6.57244C16.0976 6.48319 15.975 6.42589 15.9013 6.39385C15.7558 6.33062 15.6181 6.288 15.5388 6.26436C15.3895 6.21988 15.1938 6.16987 15.0033 6.1212C14.9831 6.11604 14.963 6.11089 14.9429 6.10577C14.0615 5.88026 13.1131 5.96079 12.2934 6.12665C11.4371 6.29993 10.5356 6.60517 9.66225 6.99156C7.93682 7.75492 6.11002 8.9299 4.80315 10.3403C3.574 11.6669 2.66594 13.2143 2.50343 14.7425C2.41903 15.536 2.53 16.4276 3.03792 17.2229C3.5597 18.0399 4.35925 18.5337 5.22832 18.756C6.61911 19.1119 7.77297 18.4213 8.43725 17.8961C9.15032 17.3323 9.80671 16.5607 10.3706 15.8364C10.7928 15.2941 11.2283 14.691 11.6386 14.1228C11.7827 13.9233 11.9237 13.728 12.06 13.5412C12.6107 12.786 13.102 12.1419 13.554 11.6542Z" fill="white" stroke="#15206D" stroke-width="3.99833"/>
<path d="M99.314 12.897C99.3139 12.8969 99.3135 12.8944 99.3128 12.8896C99.3137 12.8947 99.314 12.8971 99.314 12.897ZM97.9617 13.0141C98.8636 13.2855 99.3468 13.7131 99.611 13.9586C99.6154 13.9628 99.6224 13.9693 99.6314 13.9778C99.6876 14.0308 99.8238 14.1593 99.929 14.244C99.9303 14.2451 99.9321 14.2465 99.9342 14.2483C99.9824 14.2876 100.224 14.4846 100.57 14.6059C100.77 14.6757 101.195 14.7898 101.715 14.6581C102.313 14.5068 102.719 14.1155 102.941 13.7306C103.13 13.4028 103.179 13.1012 103.196 12.9637C103.215 12.8063 103.212 12.6755 103.209 12.5991C103.202 12.4482 103.181 12.3145 103.169 12.2418C103.146 12.1047 103.109 11.9296 103.075 11.7655C103.071 11.7477 103.067 11.73 103.064 11.7125C102.894 10.8963 102.449 10.1609 102.002 9.57773C101.532 8.96546 100.943 8.37248 100.304 7.83561C99.0455 6.77653 97.4211 5.79115 95.8016 5.30373C94.2891 4.84853 92.6958 4.71984 91.3894 5.19684C90.7089 5.44527 90.0141 5.89722 89.5586 6.64736C89.09 7.41898 89.0085 8.28652 89.176 9.09043C89.4509 10.4107 90.5062 11.0857 91.1827 11.4099C91.9139 11.7604 92.7802 11.9801 93.5552 12.1424C94.1373 12.2643 94.7733 12.3737 95.3674 12.4759C95.5747 12.5115 95.7769 12.5463 95.9699 12.5804C96.7597 12.7201 97.4296 12.8539 97.9617 13.0141Z" fill="white" stroke="#15206D" stroke-width="3.91141"/>
<mask id="path-5-outside-2_64_2514" maskUnits="userSpaceOnUse" x="22.1354" y="27.4167" width="85.3933" height="46.7791" fill="black">
<rect fill="white" x="22.1354" y="27.4167" width="85.3933" height="46.7791"/>
<path d="M35.3821 61.3732C32.0093 61.7023 30.4111 59.5052 30.1894 57.2291C29.9704 54.9805 31.2074 52.6175 33.4011 52.4035C33.6205 52.3821 33.8258 52.5005 33.8445 52.6924C33.9621 53.899 35.2213 54.6066 36.7295 54.4595C38.4297 54.2936 40.4598 52.6837 41.4281 49.2673C41.774 47.9878 42.1588 46.5384 42.5101 45.3138C42.7731 44.3192 43.3417 43.9039 44.1643 43.8236C45.316 43.7112 45.6189 44.263 45.5151 45.1867C45.3048 47.0066 43.6469 51.0163 43.8072 52.6616C43.8766 53.3746 44.3139 53.8855 45.2463 53.7946C47.632 53.5618 48.9989 49.6913 48.6838 46.4554C48.4567 44.1246 47.187 42.1722 43.4028 42.5415C40.8251 42.793 38.3924 44.2484 38.6675 47.0728C38.745 47.8681 39.2425 48.4286 39.8458 48.3697C40.6243 48.4045 39.2607 52.0256 36.6008 52.2851C34.3522 52.5045 32.9861 50.7 32.7831 48.6159C32.3263 43.9267 36.3539 39.5197 42.6335 38.907C49.6261 38.2248 52.3823 42.0806 52.8364 46.7424C53.4053 52.5833 50.1867 59.0429 45.7992 59.471C43.5232 59.693 42.0079 58.346 41.6491 56.0834C40.3912 59.0851 38.2066 61.0976 35.3821 61.3732ZM56.8633 58.1146C54.9986 58.2966 53.8732 56.69 53.6355 54.2495C53.2642 50.4378 55.0616 44.449 59.7781 43.9888C61.9719 43.7748 61.9637 44.8276 62.6766 44.758C63.5816 44.6697 63.672 43.6089 64.9608 43.4832C65.6738 43.4136 65.9607 43.8009 66.0194 44.4042C66.1209 45.4462 65.4908 46.3658 65.0424 48.0152C64.3051 50.108 64.7135 51.1754 65.9201 51.0577C66.8524 50.9667 67.4872 50.3788 67.9502 49.4478C68.2974 48.7496 69.4744 49.4652 69.2509 50.013C68.1557 52.6943 67.0642 57.1194 64.0204 57.4163C62.1283 57.6009 61.1647 55.9509 61.2721 53.6428L61.1624 53.6535C60.2819 55.9817 58.8102 57.9247 56.8633 58.1146ZM59.0525 52.1707C60.4785 52.0316 61.2993 50.512 61.1872 49.3602C61.099 48.4553 60.4972 47.9604 59.6197 48.046C58.1937 48.1851 57.4197 49.6171 57.5372 50.8237C57.628 51.756 58.2025 52.2536 59.0525 52.1707ZM72.1091 41.6507C70.7928 41.7792 69.6479 41.3926 69.5063 39.9392C69.3167 37.9922 70.4946 37.296 72.0028 37.1488C73.4013 37.0124 74.5763 37.4237 74.6048 39.1372C74.6059 40.8535 73.535 41.5116 72.1091 41.6507ZM70.5103 56.7831C68.6731 56.9624 67.8406 55.521 67.6536 53.6015C67.5281 52.3126 67.6581 50.8051 67.9412 49.4487C68.8153 45.3494 69.7232 43.0185 71.2863 42.866C71.8621 42.8098 72.2533 43.1315 72.3388 44.009C72.5017 45.6818 71.444 47.6121 71.5883 49.0929C71.6764 49.9978 72.2154 50.4158 72.9558 50.3436C73.7785 50.2633 74.2461 49.664 74.7144 48.7879C75.089 48.0869 76.2386 48.8052 76.0124 49.3256C75.2792 50.892 74.0477 56.438 70.5103 56.7831ZM85.5211 47.7335C85.8957 47.0325 87.0727 47.7482 86.8219 48.2986C86.0913 49.8924 84.7448 55.3943 81.0428 55.7555C78.7942 55.9749 77.8822 54.569 77.746 53.1705C77.4976 50.6202 79.166 47.8552 79.0378 46.539C79.0111 46.2647 78.5878 45.614 77.4509 45.3096C77.0642 46.4547 76.3409 48.4077 75.9903 49.3554C75.7032 50.1032 74.3838 49.3461 74.6895 48.7903C75.1384 47.999 75.669 46.3417 76.0123 45.0348C75.4452 44.8963 75.054 44.5746 74.9578 43.5874C74.8483 42.4631 75.6772 41.0258 77.158 40.8813C79.7356 40.6298 82.5391 42.128 82.6833 43.6088C82.8355 45.1718 81.7686 46.4386 81.9342 48.1388C82.009 48.9066 82.5312 49.437 83.7652 49.3166C84.5879 49.2363 85.0528 48.6096 85.5211 47.7335ZM99.1368 46.405C99.4205 45.9067 100.678 46.31 100.438 46.9701C99.173 50.4708 98.2508 54.0765 95.5909 54.336C95.1796 54.3762 94.8292 54.1889 94.5724 53.8264C93.3676 59.6466 91.6812 61.9427 88.6374 62.2397C85.7307 62.5233 83.9278 61.0659 83.6714 58.4334C83.3989 55.6363 85.2283 54.2398 85.3366 54.7829C85.6073 56.1406 86.7154 57.0014 88.4128 56.8081C90.8233 56.5452 92.6335 54.0986 92.676 51.4092C92.6721 50.8006 92.1103 50.717 91.9029 51.4293C91.3414 53.3388 90.1073 54.5942 88.3249 54.7681C86.8441 54.9126 85.5193 54.1007 85.3163 52.0166C85.2362 51.1939 85.1334 49.5707 85.5082 47.7347C86.3797 43.608 87.4274 41.2911 88.963 41.1413C89.5663 41.0825 89.8505 41.4423 89.9199 42.1553C90.0935 43.9377 89.0385 45.8954 89.1961 47.5133C89.2709 48.2811 89.5631 48.7232 90.468 48.6349C91.6746 48.5172 92.288 47.7099 92.6012 46.3783C93.3756 42.6763 94.3102 40.6196 95.7088 40.4831C96.504 40.4056 96.9748 40.6918 97.0603 41.5693C97.1724 42.7211 96.4586 44.2025 95.796 47.0631C95.5069 48.6416 96.0786 49.1118 96.7093 49.0502C97.532 48.97 98.4538 47.6343 99.1368 46.405Z"/>
</mask>
<path d="M35.3821 61.3732C32.0093 61.7023 30.4111 59.5052 30.1894 57.2291C29.9704 54.9805 31.2074 52.6175 33.4011 52.4035C33.6205 52.3821 33.8258 52.5005 33.8445 52.6924C33.9621 53.899 35.2213 54.6066 36.7295 54.4595C38.4297 54.2936 40.4598 52.6837 41.4281 49.2673C41.774 47.9878 42.1588 46.5384 42.5101 45.3138C42.7731 44.3192 43.3417 43.9039 44.1643 43.8236C45.316 43.7112 45.6189 44.263 45.5151 45.1867C45.3048 47.0066 43.6469 51.0163 43.8072 52.6616C43.8766 53.3746 44.3139 53.8855 45.2463 53.7946C47.632 53.5618 48.9989 49.6913 48.6838 46.4554C48.4567 44.1246 47.187 42.1722 43.4028 42.5415C40.8251 42.793 38.3924 44.2484 38.6675 47.0728C38.745 47.8681 39.2425 48.4286 39.8458 48.3697C40.6243 48.4045 39.2607 52.0256 36.6008 52.2851C34.3522 52.5045 32.9861 50.7 32.7831 48.6159C32.3263 43.9267 36.3539 39.5197 42.6335 38.907C49.6261 38.2248 52.3823 42.0806 52.8364 46.7424C53.4053 52.5833 50.1867 59.0429 45.7992 59.471C43.5232 59.693 42.0079 58.346 41.6491 56.0834C40.3912 59.0851 38.2066 61.0976 35.3821 61.3732ZM56.8633 58.1146C54.9986 58.2966 53.8732 56.69 53.6355 54.2495C53.2642 50.4378 55.0616 44.449 59.7781 43.9888C61.9719 43.7748 61.9637 44.8276 62.6766 44.758C63.5816 44.6697 63.672 43.6089 64.9608 43.4832C65.6738 43.4136 65.9607 43.8009 66.0194 44.4042C66.1209 45.4462 65.4908 46.3658 65.0424 48.0152C64.3051 50.108 64.7135 51.1754 65.9201 51.0577C66.8524 50.9667 67.4872 50.3788 67.9502 49.4478C68.2974 48.7496 69.4744 49.4652 69.2509 50.013C68.1557 52.6943 67.0642 57.1194 64.0204 57.4163C62.1283 57.6009 61.1647 55.9509 61.2721 53.6428L61.1624 53.6535C60.2819 55.9817 58.8102 57.9247 56.8633 58.1146ZM59.0525 52.1707C60.4785 52.0316 61.2993 50.512 61.1872 49.3602C61.099 48.4553 60.4972 47.9604 59.6197 48.046C58.1937 48.1851 57.4197 49.6171 57.5372 50.8237C57.628 51.756 58.2025 52.2536 59.0525 52.1707ZM72.1091 41.6507C70.7928 41.7792 69.6479 41.3926 69.5063 39.9392C69.3167 37.9922 70.4946 37.296 72.0028 37.1488C73.4013 37.0124 74.5763 37.4237 74.6048 39.1372C74.6059 40.8535 73.535 41.5116 72.1091 41.6507ZM70.5103 56.7831C68.6731 56.9624 67.8406 55.521 67.6536 53.6015C67.5281 52.3126 67.6581 50.8051 67.9412 49.4487C68.8153 45.3494 69.7232 43.0185 71.2863 42.866C71.8621 42.8098 72.2533 43.1315 72.3388 44.009C72.5017 45.6818 71.444 47.6121 71.5883 49.0929C71.6764 49.9978 72.2154 50.4158 72.9558 50.3436C73.7785 50.2633 74.2461 49.664 74.7144 48.7879C75.089 48.0869 76.2386 48.8052 76.0124 49.3256C75.2792 50.892 74.0477 56.438 70.5103 56.7831ZM85.5211 47.7335C85.8957 47.0325 87.0727 47.7482 86.8219 48.2986C86.0913 49.8924 84.7448 55.3943 81.0428 55.7555C78.7942 55.9749 77.8822 54.569 77.746 53.1705C77.4976 50.6202 79.166 47.8552 79.0378 46.539C79.0111 46.2647 78.5878 45.614 77.4509 45.3096C77.0642 46.4547 76.3409 48.4077 75.9903 49.3554C75.7032 50.1032 74.3838 49.3461 74.6895 48.7903C75.1384 47.999 75.669 46.3417 76.0123 45.0348C75.4452 44.8963 75.054 44.5746 74.9578 43.5874C74.8483 42.4631 75.6772 41.0258 77.158 40.8813C79.7356 40.6298 82.5391 42.128 82.6833 43.6088C82.8355 45.1718 81.7686 46.4386 81.9342 48.1388C82.009 48.9066 82.5312 49.437 83.7652 49.3166C84.5879 49.2363 85.0528 48.6096 85.5211 47.7335ZM99.1368 46.405C99.4205 45.9067 100.678 46.31 100.438 46.9701C99.173 50.4708 98.2508 54.0765 95.5909 54.336C95.1796 54.3762 94.8292 54.1889 94.5724 53.8264C93.3676 59.6466 91.6812 61.9427 88.6374 62.2397C85.7307 62.5233 83.9278 61.0659 83.6714 58.4334C83.3989 55.6363 85.2283 54.2398 85.3366 54.7829C85.6073 56.1406 86.7154 57.0014 88.4128 56.8081C90.8233 56.5452 92.6335 54.0986 92.676 51.4092C92.6721 50.8006 92.1103 50.717 91.9029 51.4293C91.3414 53.3388 90.1073 54.5942 88.3249 54.7681C86.8441 54.9126 85.5193 54.1007 85.3163 52.0166C85.2362 51.1939 85.1334 49.5707 85.5082 47.7347C86.3797 43.608 87.4274 41.2911 88.963 41.1413C89.5663 41.0825 89.8505 41.4423 89.9199 42.1553C90.0935 43.9377 89.0385 45.8954 89.1961 47.5133C89.2709 48.2811 89.5631 48.7232 90.468 48.6349C91.6746 48.5172 92.288 47.7099 92.6012 46.3783C93.3756 42.6763 94.3102 40.6196 95.7088 40.4831C96.504 40.4056 96.9748 40.6918 97.0603 41.5693C97.1724 42.7211 96.4586 44.2025 95.796 47.0631C95.5069 48.6416 96.0786 49.1118 96.7093 49.0502C97.532 48.97 98.4538 47.6343 99.1368 46.405Z" fill="white"/>
<path d="M41.4281 49.2673L46.1408 50.6024L46.1489 50.5739L46.1566 50.5453L41.4281 49.2673ZM42.5101 45.3138L47.2186 46.6639L47.2327 46.6148L47.2458 46.5654L42.5101 45.3138ZM45.5151 45.1867L50.3812 45.7482L50.3821 45.7406L50.3829 45.733L45.5151 45.1867ZM39.8458 48.3697L40.0651 43.476L39.7174 43.4605L39.3709 43.4943L39.8458 48.3697ZM41.6491 56.0834L46.487 55.3154L43.7891 38.3022L37.1313 54.1907L41.6491 56.0834ZM34.9072 56.4978C34.6296 56.5249 34.562 56.4845 34.6349 56.5071C34.6682 56.5175 34.7197 56.5379 34.7805 56.5733C34.8411 56.6085 34.8979 56.6511 34.9475 56.6975C35.048 56.7914 35.0849 56.8675 35.0893 56.8773C35.0916 56.8825 35.0733 56.8409 35.0648 56.7535L25.3141 57.7048C25.5146 59.7631 26.3625 62.0862 28.2607 63.8587C30.2661 65.7314 32.9564 66.5316 35.857 66.2486L34.9072 56.4978ZM35.0648 56.7535C35.0606 56.71 35.0636 56.6573 35.0736 56.6118C35.0841 56.5645 35.091 56.5736 35.0557 56.6307C35.0194 56.6893 34.9155 56.8334 34.7 56.9802C34.4687 57.1377 34.1775 57.2495 33.876 57.2789L32.9263 47.528C30.0235 47.8113 27.9222 49.5419 26.7253 51.476C25.5643 53.3521 25.1082 55.5913 25.3141 57.7048L35.0648 56.7535ZM33.876 57.2789C33.0129 57.3631 32.0161 57.1964 31.0928 56.6166C30.1247 56.0088 29.1319 54.8388 28.9692 53.1681L38.7199 52.2167C38.3323 48.2377 34.5946 47.3653 32.9263 47.528L33.876 57.2789ZM28.9692 53.1681C29.1995 55.5325 30.595 57.2991 32.2537 58.2895C33.8317 59.2318 35.613 59.4902 37.2044 59.3349L36.2546 49.584C36.3378 49.5759 36.7354 49.554 37.2773 49.8776C37.9 50.2494 38.6071 51.0589 38.7199 52.2167L28.9692 53.1681ZM37.2044 59.3349C41.6046 58.9056 44.8413 55.1875 46.1408 50.6024L36.7153 47.9322C36.4186 48.979 36.0395 49.4673 35.8711 49.6376C35.6862 49.8244 35.7723 49.6311 36.2546 49.584L37.2044 59.3349ZM46.1566 50.5453C46.5123 49.2301 46.8809 47.841 47.2186 46.6639L37.8016 43.9637C37.4367 45.2358 37.0358 46.7455 36.6995 47.9893L46.1566 50.5453ZM47.2458 46.5654C47.198 46.7461 46.9863 47.3693 46.3151 47.9447C45.6345 48.5281 44.9403 48.6697 44.6392 48.699L43.6894 38.9482C42.5657 39.0578 41.1759 39.4472 39.9396 40.507C38.7128 41.5587 38.0853 42.8869 37.7745 44.0621L47.2458 46.5654ZM44.6392 48.699C44.6081 48.7021 42.944 48.8715 41.6031 47.3188C40.9953 46.615 40.7678 45.8836 40.6862 45.4217C40.6094 44.9872 40.6415 44.6919 40.6473 44.6403L50.3829 45.733C50.4736 44.9262 50.6154 42.7641 49.018 40.9145C47.2637 38.8831 44.8722 38.8328 43.6894 38.9482L44.6392 48.699ZM40.6491 44.6252C40.6506 44.6117 40.6419 44.6855 40.5979 44.8793C40.5562 45.0628 40.4969 45.2939 40.417 45.5816C40.2458 46.1984 40.0581 46.8055 39.8215 47.6125C39.6068 48.3451 39.3639 49.2049 39.1871 50.0301C39.0347 50.7413 38.8139 51.927 38.9318 53.1373L48.6825 52.1859C48.7203 52.5735 48.6466 52.641 48.7666 52.0808C48.8622 51.6345 49.0168 51.0697 49.2229 50.3667C49.4071 49.7382 49.6632 48.8988 49.857 48.2004C50.0441 47.5262 50.281 46.6148 50.3812 45.7482L40.6491 44.6252ZM38.9318 53.1373C39.0471 54.3204 39.5313 55.9496 40.9749 57.2144C42.479 58.5322 44.2844 58.8102 45.7212 58.67L44.7714 48.9191C45.2758 48.8699 46.3963 48.9379 47.4314 49.8448C48.4059 50.6985 48.6367 51.7157 48.6825 52.1859L38.9318 53.1373ZM45.7212 58.67C49.6223 58.2894 51.6417 55.1366 52.4801 53.1804C53.4251 50.9755 53.7916 48.3664 53.5591 45.9798L43.8084 46.9311C43.8462 47.3188 43.8359 47.7673 43.7691 48.2209C43.7017 48.6778 43.5892 49.0569 43.4756 49.322C43.3529 49.6083 43.2926 49.6165 43.4192 49.4933C43.5754 49.3414 44.0328 48.9912 44.7714 48.9191L45.7212 58.67ZM53.5591 45.9798C53.382 44.1615 52.7304 41.7036 50.6453 39.8364C48.4812 37.8984 45.6807 37.3974 42.9279 37.666L43.8776 47.4169C44.3951 47.3664 44.5942 47.4195 44.5775 47.4152C44.565 47.412 44.503 47.3944 44.41 47.3459C44.3156 47.2967 44.2112 47.2268 44.1091 47.1354C43.895 46.9436 43.7996 46.7564 43.7723 46.6908C43.7525 46.6432 43.7865 46.7057 43.8084 46.9311L53.5591 45.9798ZM42.9279 37.666C40.9767 37.8564 38.6903 38.5253 36.8257 40.0827C34.7718 41.7982 33.4872 44.4173 33.7922 47.5485L43.5429 46.5972C43.548 46.6496 43.5495 46.8607 43.4334 47.1325C43.3222 47.3928 43.1734 47.5447 43.105 47.6018C43.049 47.6487 43.0722 47.6129 43.2292 47.555C43.3826 47.4985 43.604 47.4436 43.8776 47.4169L42.9279 37.666ZM33.7922 47.5485C33.9896 49.575 35.7658 53.6895 40.3207 53.2451L39.3709 43.4943C40.8547 43.3495 42.0381 44.0299 42.6966 44.7597C43.3079 45.4373 43.4985 46.1415 43.5429 46.5972L33.7922 47.5485ZM39.6264 53.2634C38.643 53.2195 37.5884 52.8552 36.7162 52.0816C35.9055 51.3625 35.5318 50.5398 35.362 49.9943C35.0568 49.0143 35.1911 48.2611 35.2137 48.1301C35.2861 47.7091 35.3944 47.5889 35.3338 47.688C35.1606 47.9713 35.2974 47.4905 36.1259 47.4096L37.0757 57.1605C40.564 56.8202 42.7126 54.3991 43.6915 52.7983C44.207 51.9553 44.6765 50.9071 44.8688 49.7892C44.9512 49.3098 45.0851 48.266 44.7159 47.0803C44.514 46.4319 44.0925 45.5276 43.2175 44.7515C42.2811 43.921 41.1459 43.5243 40.0651 43.476L39.6264 53.2634ZM36.1259 47.4096C36.2753 47.3951 36.5329 47.4068 36.8324 47.5211C37.1257 47.6331 37.343 47.7991 37.4816 47.9456C37.7265 48.2041 37.6766 48.3265 37.6584 48.1402L27.9077 49.0916C28.0926 50.9894 28.8272 53.0561 30.368 54.683C32.0193 56.4266 34.3954 57.422 37.0757 57.1605L36.1259 47.4096ZM37.6584 48.1402C37.5398 46.9219 38.6709 44.2154 43.1084 43.7825L42.1586 34.0316C34.0369 34.824 27.1129 40.9315 27.9077 49.0916L37.6584 48.1402ZM43.1084 43.7825C45.639 43.5355 46.5753 44.1603 46.9054 44.4582C47.3225 44.8344 47.8071 45.6376 47.961 47.218L57.7117 46.2667C57.4116 43.1853 56.2911 39.7297 53.4683 37.1832C50.5587 34.5583 46.6205 33.5962 42.1586 34.0316L43.1084 43.7825ZM47.961 47.218C48.1498 49.1564 47.6919 51.2648 46.8565 52.8279C45.9431 54.5368 45.1888 54.6088 45.3243 54.5955L46.2741 64.3464C50.797 63.9051 53.8459 60.5332 55.4964 57.4451C57.2249 54.2111 58.0919 50.1692 57.7117 46.2667L47.961 47.218ZM45.3243 54.5955C45.2853 54.5993 45.3772 54.5847 45.5572 54.6349C45.7453 54.6873 45.9564 54.7909 46.1466 54.9499C46.5429 55.2811 46.5254 55.5572 46.487 55.3154L36.8111 56.8513C37.1315 58.8722 38.051 60.9531 39.8637 62.468C41.7236 64.0223 44.0299 64.5654 46.2741 64.3464L45.3243 54.5955ZM37.1313 54.1907C36.3294 56.1045 35.3936 56.4503 34.9072 56.4978L35.857 66.2486C41.0196 65.7449 44.4531 62.0657 46.1668 57.976L37.1313 54.1907ZM65.0424 48.0152L69.6624 49.6424L69.7221 49.4729L69.7693 49.2995L65.0424 48.0152ZM67.9502 49.4478L63.5642 47.2672L63.5642 47.2672L67.9502 49.4478ZM69.2509 50.013L73.7856 51.8648L73.7864 51.8628L69.2509 50.013ZM61.2721 53.6428L66.1653 53.8696L66.4281 48.218L60.7972 48.7674L61.2721 53.6428ZM61.1624 53.6535L60.6875 48.7781L57.6577 49.0737L56.5808 51.9213L61.1624 53.6535ZM56.3884 53.2392C56.6875 53.21 57.1176 53.2442 57.5763 53.4456C58.0253 53.6428 58.3163 53.9186 58.4727 54.1153C58.6175 54.2973 58.6383 54.3971 58.6124 54.3214C58.5879 54.2501 58.5401 54.0739 58.5109 53.7738L48.7602 54.7251C48.9312 56.481 49.4628 58.5275 50.8058 60.2157C52.3221 62.1216 54.6568 63.2517 57.3382 62.9901L56.3884 53.2392ZM58.5109 53.7738C58.4075 52.7126 58.6301 51.1786 59.1999 50.0124C59.7498 48.887 60.1788 48.8715 60.253 48.8643L59.3032 39.1134C54.6609 39.5664 51.8329 42.7754 50.3979 45.7123C48.9827 48.6084 48.4922 51.9746 48.7602 54.7251L58.5109 53.7738ZM60.253 48.8643C60.4215 48.8478 60.3156 48.879 60.041 48.8209C59.7192 48.7528 59.411 48.6152 59.1702 48.4634C59.0836 48.4088 59.0298 48.3664 59.0903 48.4116C59.0969 48.4166 59.3364 48.6006 59.5915 48.7638C59.8867 48.9526 60.3756 49.2319 61.0278 49.4278C61.715 49.6341 62.4332 49.7035 63.1515 49.6334L62.2018 39.8826C62.7419 39.8299 63.3043 39.8816 63.8469 40.0445C64.3546 40.197 64.7101 40.4071 64.8714 40.5103C64.9928 40.588 65.0982 40.67 64.959 40.5659C64.8737 40.5021 64.6624 40.3435 64.3951 40.1751C63.7931 39.7956 63.031 39.4393 62.0715 39.2361C61.1591 39.043 60.2316 39.0228 59.3032 39.1134L60.253 48.8643ZM63.1515 49.6334C64.4197 49.5097 65.4105 49.0151 66.1225 48.4951C66.4413 48.2623 66.6864 48.0376 66.8343 47.8968C66.9098 47.8249 66.9758 47.7595 67.0183 47.7173C67.0726 47.6634 67.0843 47.6515 67.1093 47.6268C67.1895 47.548 66.9945 47.7569 66.6488 47.9579C66.2471 48.1914 65.8174 48.3214 65.4357 48.3586L64.486 38.6077C63.4599 38.7079 62.5355 39.0176 61.7262 39.4881C60.9728 39.9261 60.4569 40.4293 60.2403 40.6424C60.1911 40.6908 60.1301 40.7517 60.1122 40.7695C60.0824 40.7991 60.0768 40.8044 60.0801 40.8012C60.0837 40.7978 60.1827 40.7024 60.3457 40.5833C60.7459 40.291 61.3861 39.9621 62.2018 39.8826L63.1515 49.6334ZM65.4357 48.3586C64.843 48.4164 63.4898 48.3407 62.3204 47.2037C61.3024 46.2138 61.1671 45.1161 61.1441 44.8798L70.8948 43.9285C70.813 43.0889 70.5049 41.4959 69.1505 40.179C67.6448 38.7149 65.7917 38.4803 64.486 38.6077L65.4357 48.3586ZM61.1441 44.8798C61.0844 44.2674 61.28 43.8956 61.1206 44.3448C61.0859 44.4426 61.0452 44.5523 60.9864 44.7096C60.9317 44.8561 60.8619 45.0428 60.7903 45.2413C60.6436 45.6482 60.4739 46.1482 60.3155 46.7309L69.7693 49.2995C69.9293 48.7107 70.0475 48.4821 70.3536 47.619C70.5961 46.9356 71.0559 45.583 70.8948 43.9285L61.1441 44.8798ZM60.4224 46.388C59.9658 47.6838 59.4261 49.7478 60.0774 51.8291C60.4577 53.0443 61.2721 54.3121 62.6756 55.1424C64.0117 55.9329 65.3831 56.0319 66.395 55.9331L65.4452 46.1823C65.8538 46.1424 66.7217 46.1521 67.6648 46.7101C68.6755 47.308 69.2077 48.2003 69.4272 48.9017C69.6196 49.5165 69.5668 49.9356 69.5632 49.9661C69.5561 50.0259 69.5618 49.928 69.6624 49.6424L60.4224 46.388ZM66.395 55.9331C69.5992 55.6205 71.4302 53.4504 72.3362 51.6284L63.5642 47.2672C63.5345 47.3269 63.6419 47.0799 63.9949 46.7888C64.4062 46.4496 64.932 46.2324 65.4452 46.1823L66.395 55.9331ZM72.3362 51.6284C71.6788 52.9504 70.4049 53.8138 69.0325 54.0125C67.9031 54.1761 67.0364 53.8586 66.5647 53.6148C66.0756 53.362 65.5042 52.9304 65.0521 52.2164C64.594 51.4929 63.9859 49.9516 64.7155 48.1632L73.7864 51.8628C74.6277 49.8005 73.9562 47.9643 73.3295 46.9744C72.7088 45.994 71.8632 45.3244 71.0644 44.9115C70.283 44.5075 69.071 44.1079 67.6301 44.3165C65.9464 44.5603 64.3952 45.5961 63.5642 47.2672L72.3362 51.6284ZM64.7163 48.1612C64.4214 48.8831 64.0529 49.9112 63.823 50.5136C63.5398 51.256 63.293 51.8388 63.0464 52.3002C62.433 53.4477 62.4901 52.6439 63.5455 52.5409L64.4952 62.2918C68.5944 61.8918 70.7191 58.727 71.6863 56.9174C72.6192 55.1721 73.4935 52.5799 73.7856 51.8648L64.7163 48.1612ZM63.5455 52.5409C63.8329 52.5129 64.3099 52.5394 64.8419 52.7865C65.3731 53.0333 65.7318 53.3946 65.9389 53.6972C66.2898 54.2099 66.14 54.4117 66.1653 53.8696L56.379 53.4159C56.2968 55.1821 56.5752 57.3629 57.8539 59.2314C59.3342 61.3943 61.7849 62.5562 64.4952 62.2918L63.5455 52.5409ZM60.7972 48.7674L60.6875 48.7781L61.6373 58.5289L61.747 58.5182L60.7972 48.7674ZM56.5808 51.9213C56.4389 52.2965 56.2871 52.6183 56.1378 52.8802C55.9867 53.1452 55.8583 53.3135 55.7741 53.407C55.5923 53.6087 55.7858 53.298 56.3884 53.2392L57.3382 62.9901C59.8877 62.7413 61.7905 61.3642 63.0514 59.9649C64.3008 58.5784 65.1627 56.923 65.7441 55.3857L56.5808 51.9213ZM59.5274 57.0461C61.9847 56.8064 63.741 55.3734 64.7423 53.9064C65.6997 52.5037 66.2397 50.7038 66.0625 48.8846L56.3118 49.8359C56.2468 49.1684 56.4324 48.7042 56.651 48.384C56.9134 47.9995 57.5463 47.3959 58.5777 47.2953L59.5274 57.0461ZM66.0625 48.8846C65.9221 47.4431 65.3017 45.7909 63.837 44.5694C62.3651 43.3419 60.6131 43.0273 59.1448 43.1706L60.0946 52.9214C59.5037 52.9791 58.4914 52.8691 57.5618 52.0939C56.6395 51.3248 56.3641 50.3724 56.3118 49.8359L66.0625 48.8846ZM59.1448 43.1706C54.2202 43.651 52.3682 48.2841 52.6619 51.2994L62.4126 50.348C62.4653 50.8894 62.3343 51.3698 62.0528 51.7847C61.7216 52.2729 61.0455 52.8286 60.0946 52.9214L59.1448 43.1706ZM52.6619 51.2994C52.7935 52.6506 53.3444 54.2938 54.7683 55.5507C56.2356 56.8459 58.0213 57.1931 59.5274 57.0461L58.5777 47.2953C59.2337 47.2313 60.3071 47.3711 61.2521 48.2051C62.1535 49.0009 62.3718 49.9291 62.4126 50.348L52.6619 51.2994ZM74.6048 39.1372L79.5032 39.1334L79.5032 39.0942L79.5026 39.055L74.6048 39.1372ZM67.9412 49.4487L63.1505 48.4278L63.1483 48.4382L63.1461 48.4485L67.9412 49.4487ZM74.7144 48.7878L70.3944 46.4792L70.3944 46.4792L74.7144 48.7878ZM76.0124 49.3256L80.4488 51.4019L80.4777 51.3401L80.5049 51.2775L76.0124 49.3256ZM71.6342 36.7753C71.4528 36.793 71.992 36.6834 72.7605 37.1137C73.1997 37.3596 73.6328 37.7425 73.9519 38.2577C74.2618 38.758 74.3568 39.2084 74.3817 39.4635L64.631 40.4149C64.8396 42.5568 65.9544 44.532 67.9739 45.6626C69.6794 46.6174 71.4492 46.6369 72.584 46.5262L71.6342 36.7753ZM74.3817 39.4635C74.3836 39.4834 74.4076 39.7564 74.2772 40.1711C74.1366 40.6182 73.8678 41.0631 73.4893 41.4223C72.8074 42.0693 72.2048 42.0509 72.4777 42.0243L71.5279 32.2734C70.2925 32.3939 68.3469 32.7972 66.7464 34.3159C64.9291 36.0404 64.4289 38.3399 64.631 40.4149L74.3817 39.4635ZM72.4777 42.0243C72.7473 41.9979 72.0756 42.1466 71.1903 41.5841C70.6792 41.2594 70.2529 40.7887 69.9847 40.2417C69.7351 39.7327 69.709 39.3371 69.7071 39.2195L79.5026 39.055C79.468 36.9783 78.6324 34.7043 76.4448 33.3145C74.6152 32.152 72.6568 32.1632 71.5279 32.2734L72.4777 42.0243ZM69.7064 39.1411C69.7063 39.0633 69.7185 38.7876 69.8701 38.4101C70.03 38.0117 70.2936 37.6307 70.6374 37.325C71.2755 36.7575 71.8221 36.757 71.6342 36.7753L72.584 46.5262C73.822 46.4054 75.617 46.0062 77.1468 44.6458C78.8431 43.1373 79.5045 41.093 79.5032 39.1334L69.7064 39.1411ZM70.0354 51.9077C70.2564 51.8861 70.6797 51.8953 71.1829 52.1027C71.692 52.3127 72.0615 52.6346 72.292 52.9235C72.5033 53.1883 72.5676 53.384 72.5712 53.3947C72.576 53.4094 72.5487 53.3281 72.529 53.1258L62.7783 54.0772C62.9153 55.4842 63.3334 57.4051 64.6342 59.0352C66.1704 60.9603 68.4828 61.9027 70.9852 61.6585L70.0354 51.9077ZM72.529 53.1258C72.4631 52.449 72.5267 51.4529 72.7363 50.4489L63.1461 48.4485C62.7894 50.1573 62.5931 52.1763 62.7783 54.0772L72.529 53.1258ZM72.7319 50.4696C72.9361 49.5119 73.1285 48.7239 73.3154 48.0826C73.5059 47.4292 73.6644 47.0206 73.7763 46.7863C73.8998 46.5274 73.878 46.6689 73.6085 46.9261C73.27 47.2491 72.6338 47.6563 71.7612 47.7414L70.8114 37.9906C67.3502 38.3283 65.6563 41.0555 64.9345 42.5684C64.136 44.2418 63.5962 46.3376 63.1505 48.4278L72.7319 50.4696ZM71.7612 47.7414C70.9902 47.8167 69.6231 47.6582 68.5076 46.5265C67.5689 45.5742 67.4728 44.5809 67.4634 44.4847L77.2142 43.5334C77.1193 42.5597 76.7849 40.9668 75.4853 39.6483C74.0088 38.1504 72.1582 37.8592 70.8114 37.9906L71.7612 47.7414ZM67.4634 44.4847C67.4476 44.3221 67.4725 44.2927 67.4396 44.488C67.4051 44.6927 67.3444 44.946 67.2272 45.4007C67.1293 45.7805 66.9644 46.4014 66.8499 47.0243C66.7341 47.6541 66.6143 48.5565 66.7129 49.5685L76.4636 48.6172C76.4901 48.8888 76.4484 48.9946 76.4853 48.7937C76.5235 48.586 76.5858 48.3421 76.7139 47.8451C76.8227 47.4231 76.9869 46.7876 77.1004 46.1137C77.2155 45.4304 77.3115 44.5324 77.2142 43.5334L67.4634 44.4847ZM66.7129 49.5685C66.8409 50.8823 67.3719 52.5202 68.801 53.771C70.2647 55.0522 72.0187 55.3568 73.4307 55.219L72.4809 45.4681C73.1525 45.4026 74.2668 45.5343 75.2539 46.3983C76.2063 47.2319 76.4238 48.2084 76.4636 48.6172L66.7129 49.5685ZM73.4307 55.219C76.9835 54.8724 78.5272 52.0453 79.0343 51.0965L70.3944 46.4792C70.2186 46.8082 70.274 46.6229 70.5613 46.3448C70.7358 46.1758 71.003 45.9632 71.3696 45.7848C71.7441 45.6027 72.1274 45.5026 72.4809 45.4681L73.4307 55.219ZM79.0343 51.0965C78.3751 52.3299 77.1554 53.1527 75.8195 53.3494C74.7041 53.5135 73.8385 53.2069 73.3518 52.9571C72.8552 52.7022 72.274 52.265 71.816 51.5397C71.3566 50.8123 70.7208 49.2126 71.52 47.3737L80.5049 51.2775C81.4171 49.1784 80.7225 47.2938 80.0994 46.3072C79.4777 45.3228 78.6282 44.6522 77.8256 44.2404C77.0329 43.8336 75.8239 43.4462 74.3945 43.6566C72.7448 43.8994 71.241 44.8953 70.3944 46.4792L79.0343 51.0965ZM71.5761 47.2493C71.3855 47.6565 71.2228 48.0925 71.1113 48.3967C71.0495 48.5652 70.9854 48.7441 70.926 48.9092C70.8646 49.08 70.8049 49.2458 70.7428 49.4149C70.4893 50.1049 70.2402 50.7254 69.9632 51.2603C69.675 51.8169 69.4637 52.0673 69.3864 52.1407C69.3575 52.1682 69.5917 51.951 70.0354 51.9077L70.9852 61.6585C75.4343 61.2245 77.702 57.6195 78.6627 55.7644C79.2274 54.6738 79.6447 53.5925 79.9389 52.7913C80.0137 52.5876 80.0835 52.3938 80.1451 52.2226C80.2086 52.0457 80.2609 51.9002 80.3099 51.7665C80.4199 51.4662 80.4561 51.3863 80.4488 51.4019L71.5761 47.2493ZM85.5211 47.7335L81.2011 45.4248L81.2011 45.4248L85.5211 47.7335ZM86.8219 48.2986L91.2747 50.3393L91.279 50.3297L86.8219 48.2986ZM77.4509 45.3096L78.7181 40.5776L74.2803 39.3898L72.8101 43.7427L77.4509 45.3096ZM75.9903 49.3554L80.5633 51.1103L80.574 51.0824L80.5844 51.0544L75.9903 49.3554ZM74.6895 48.7903L70.4291 46.3735L70.4132 46.4015L70.3977 46.4298L74.6895 48.7903ZM76.0123 45.0348L80.75 46.2786L82.0164 41.4578L77.1747 40.2759L76.0123 45.0348ZM89.8411 50.0421C89.1686 51.3002 87.9315 52.1079 86.614 52.2974C85.5106 52.456 84.651 52.1542 84.1562 51.8984C83.654 51.6389 83.0515 51.1841 82.5876 50.4185C82.0994 49.6128 81.5648 48.0223 82.3647 46.2675L91.279 50.3297C92.2043 48.2996 91.6167 46.4134 90.9666 45.3405C90.3409 44.3078 89.4678 43.6148 88.6559 43.1951C87.8514 42.7792 86.6429 42.3955 85.2213 42.5999C83.5857 42.8351 82.0609 43.8163 81.2011 45.4248L89.8411 50.0421ZM82.369 46.2579C82.1961 46.6351 82.0399 47.0473 81.9296 47.3412C81.7962 47.6965 81.6943 47.9766 81.5595 48.3271C81.3015 48.9978 81.0417 49.6069 80.7544 50.1295C80.0383 51.4319 79.8706 50.9481 80.5679 50.88L81.5177 60.6309C85.917 60.2017 88.2736 56.7864 89.3388 54.8491C89.9422 53.7518 90.3874 52.6641 90.703 51.8436C90.855 51.4485 91.007 51.0345 91.1017 50.7824C91.1547 50.6411 91.1953 50.5349 91.2286 50.4513C91.2632 50.3645 91.2771 50.3341 91.2747 50.3393L82.369 46.2579ZM80.5679 50.88C80.5408 50.8827 80.7195 50.8615 81.024 50.9541C81.3437 51.0513 81.6814 51.2383 81.973 51.5147C82.5315 52.0444 82.6099 52.5769 82.6213 52.6948L72.8706 53.6461C73.0183 55.1625 73.6208 57.0973 75.2316 58.6246C76.9656 60.2688 79.2446 60.8527 81.5177 60.6309L80.5679 50.88ZM82.6213 52.6948C82.6029 52.5057 82.6527 52.0254 83.0188 50.8633C83.1457 50.4606 83.412 49.6681 83.5748 49.0824C83.7208 48.5569 84.0406 47.3712 83.9132 46.0633L74.1625 47.0146C74.0992 46.3648 74.2585 46.0184 74.1355 46.4612C74.0292 46.8438 73.918 47.1488 73.6748 47.9207C73.3009 49.1076 72.6406 51.285 72.8706 53.6461L82.6213 52.6948ZM83.9132 46.0633C83.74 44.2851 82.723 43.0273 82.007 42.3576C81.114 41.5225 79.9892 40.9178 78.7181 40.5776L76.1837 50.0417C76.0495 50.0058 75.7048 49.8786 75.3144 49.5135C75.1272 49.3385 74.9115 49.0911 74.7133 48.7532C74.5521 48.4783 74.2468 47.8806 74.1625 47.0146L83.9132 46.0633ZM72.8101 43.7427C72.4513 44.8051 71.7578 46.6788 71.3962 47.6564L80.5844 51.0544C80.9239 50.1366 81.677 48.1043 82.0917 46.8766L72.8101 43.7427ZM71.4172 47.6005C72.0051 46.0692 73.3772 45.0593 74.8497 44.8237C76.0084 44.6383 76.8837 44.9656 77.325 45.1883C77.7861 45.421 78.4016 45.8537 78.8871 46.6371C79.413 47.4857 80.015 49.2717 78.9813 51.1508L70.3977 46.4298C69.2112 48.5868 69.8634 50.6758 70.5597 51.7993C71.2156 52.8576 72.1216 53.5371 72.9102 53.9351C73.679 54.323 74.9189 54.7342 76.3962 54.4978C78.1873 54.2112 79.8319 53.0156 80.5633 51.1103L71.4172 47.6005ZM78.9499 51.207C79.7519 49.7935 80.4142 47.5571 80.75 46.2786L71.2747 43.7909C71.1281 44.3489 70.9432 44.9738 70.7563 45.5196C70.6632 45.7914 70.5788 46.0166 70.5081 46.1885C70.43 46.378 70.4009 46.4232 70.4291 46.3735L78.9499 51.207ZM77.1747 40.2759C77.5001 40.3553 78.3766 40.642 79.1016 41.5292C79.762 42.3373 79.8302 43.0809 79.8332 43.1117L70.0825 44.0631C70.1816 45.0811 70.4935 46.4792 71.5153 47.7296C72.6018 49.059 73.9574 49.5757 74.85 49.7936L77.1747 40.2759ZM79.8332 43.1117C79.9048 43.8471 79.6851 44.3892 79.4158 44.7575C79.0897 45.2036 78.4713 45.6749 77.6329 45.7567L76.6831 36.0059C72.0012 36.4627 69.7631 40.7845 70.0825 44.0631L79.8332 43.1117ZM77.6329 45.7567C77.7338 45.7469 77.899 45.75 78.1072 45.7926C78.3158 45.8352 78.4958 45.9029 78.6163 45.964C78.7563 46.035 78.7016 46.0372 78.5487 45.8742C78.4267 45.7441 77.9119 45.1519 77.8079 44.0845L87.5586 43.1331C87.3826 41.3252 86.4632 39.9905 85.6945 39.1709C84.8948 38.3183 83.9511 37.684 83.05 37.2268C81.2742 36.3259 79.0008 35.7797 76.6831 36.0059L77.6329 45.7567ZM77.8079 44.0845C77.7711 43.7068 77.9141 43.4497 77.6294 44.3585C77.4216 45.0216 76.8676 46.6511 77.0588 48.6145L86.8095 47.6631C86.8352 47.9263 86.7318 48.0724 86.9781 47.2862C87.1474 46.7459 87.7477 45.0738 87.5586 43.1331L77.8079 44.0845ZM77.0588 48.6145C77.194 50.002 77.8249 51.7824 79.5372 53.0253C81.148 54.1945 82.9436 54.3185 84.2401 54.192L83.2903 44.4412C83.3529 44.4351 84.2704 44.3541 85.2928 45.0963C86.4168 45.9121 86.7492 47.0434 86.8095 47.6631L77.0588 48.6145ZM84.2401 54.192C87.8573 53.8391 89.3979 50.8713 89.8411 50.0421L81.2011 45.4248C81.1229 45.5711 81.0901 45.6211 81.0908 45.62C81.0919 45.6185 81.1657 45.5061 81.3212 45.3513C81.4854 45.1879 81.749 44.9691 82.1216 44.7818C82.5047 44.5892 82.9073 44.4785 83.2903 44.4412L84.2401 54.192ZM99.1368 46.405L94.88 43.982L94.8674 44.0041L94.8551 44.0262L99.1368 46.405ZM100.438 46.9701L95.8345 45.2957L95.8306 45.3064L100.438 46.9701ZM94.5724 53.8264L98.5698 50.9945L92.0591 41.8027L89.7757 52.8342L94.5724 53.8264ZM85.3366 54.7829L90.1405 53.8244L85.3366 54.7829ZM88.4128 56.8081L87.8826 51.9384L87.871 51.9396L87.8594 51.941L88.4128 56.8081ZM92.676 51.4092L97.5738 51.4859L97.5747 51.4314L97.5743 51.3769L92.676 51.4092ZM91.9029 51.4293L96.6024 52.8104L96.6059 52.7983L91.9029 51.4293ZM85.5082 47.7347L80.7155 46.7233L80.7121 46.7394L80.7088 46.7556L85.5082 47.7347ZM92.6012 46.3783L97.3695 47.4991L97.3834 47.44L97.3959 47.3805L92.6012 46.3783ZM95.796 47.0631L91.0239 45.9585L90.9983 46.0693L90.9778 46.1811L95.796 47.0631ZM103.394 48.8279C102.474 50.4438 100.971 50.9277 100.184 51.0398C99.3914 51.1528 98.7306 51.0169 98.2487 50.8345C97.7881 50.6601 97.0264 50.265 96.4013 49.3975C95.648 48.3521 95.2808 46.8175 95.8345 45.2957L105.041 48.6446C105.715 46.7927 105.28 44.9601 104.35 43.669C103.548 42.5558 102.499 41.9673 101.719 41.6718C100.917 41.3683 99.9037 41.1838 98.8032 41.3407C97.7085 41.4967 95.9416 42.1171 94.88 43.982L103.394 48.8279ZM95.8306 45.3064C95.6613 45.775 95.4986 46.2431 95.3503 46.6683C95.1981 47.1045 95.0597 47.4997 94.9217 47.8761C94.639 48.6473 94.4101 49.1934 94.202 49.5893C93.9864 49.9992 93.9068 50.0246 94.0287 49.9156C94.2239 49.7412 94.6183 49.5092 95.116 49.4606L96.0658 59.2115C99.92 58.8354 101.917 55.9653 102.873 54.1478C103.803 52.3793 104.545 50.0181 105.045 48.6338L95.8306 45.3064ZM95.116 49.4606C95.8174 49.3922 96.5656 49.52 97.2465 49.8667C97.9004 50.1995 98.3228 50.6457 98.5698 50.9945L90.575 56.6583C91.6566 58.1852 93.5988 59.4522 96.0658 59.2115L95.116 49.4606ZM89.7757 52.8342C89.21 55.5667 88.651 56.7765 88.3038 57.2643C88.1761 57.4438 88.1468 57.4244 88.2377 57.3721C88.3277 57.3203 88.344 57.3465 88.1625 57.3643L89.1123 67.1151C92.0252 66.8309 94.4987 65.4547 96.2853 62.9442C97.8435 60.7547 98.73 57.9063 99.3691 54.8186L89.7757 52.8342ZM88.1625 57.3643C87.8818 57.3916 87.7754 57.362 87.8016 57.3682C87.8389 57.3771 87.9874 57.4226 88.1678 57.5629C88.3517 57.7058 88.47 57.8708 88.5305 57.9922C88.5849 58.1013 88.5617 58.1113 88.5467 57.9577L78.796 58.9091C79.0251 61.2612 80.0264 63.6434 82.1532 65.2973C84.244 66.9232 86.7766 67.343 89.1123 67.1151L88.1625 57.3643ZM88.5467 57.9577C88.5239 57.7237 88.6055 57.8301 88.3883 58.1438C88.3353 58.2203 88.0327 58.6569 87.3142 59.0438C87.0541 59.1839 86.0108 59.7246 84.5471 59.521C83.7002 59.4031 82.7056 59.0244 81.8658 58.2001C81.0421 57.3918 80.6756 56.4583 80.5327 55.7413L90.1405 53.8244C89.984 53.0395 89.5906 52.0534 88.7284 51.2072C87.85 50.3451 86.8052 49.9434 85.8985 49.8172C84.3151 49.597 83.1132 50.1795 82.6707 50.4178C81.5872 51.0012 80.824 51.86 80.3342 52.5673C79.2432 54.1429 78.5464 56.346 78.796 58.9091L88.5467 57.9577ZM80.5327 55.7413C80.8863 57.5149 81.8645 59.2417 83.5581 60.4098C85.2363 61.5672 87.1799 61.8786 88.9663 61.6752L87.8594 51.941C87.9483 51.9308 88.4891 51.9085 89.1212 52.3445C89.7687 52.7911 90.0576 53.4086 90.1405 53.8244L80.5327 55.7413ZM88.9431 61.6778C94.4722 61.0748 97.5037 55.9156 97.5738 51.4859L87.7782 51.3325C87.776 51.4696 87.7508 51.6088 87.7058 51.7377C87.6603 51.8683 87.6033 51.9633 87.5592 52.0203C87.4604 52.148 87.5352 51.9763 87.8826 51.9384L88.9431 61.6778ZM97.5743 51.3769C97.5659 50.0612 96.7017 46.2261 92.5994 46.0309C88.9102 45.8553 87.4979 49.0367 87.1998 50.0603L96.6059 52.7983C96.5152 53.1096 95.4876 55.9767 92.1321 55.817C88.3635 55.6376 87.7822 52.1486 87.7777 51.4416L97.5743 51.3769ZM87.2034 50.0482C87.1094 50.3679 87.042 50.3475 87.1895 50.2067C87.2661 50.1335 87.3768 50.0526 87.5161 49.9888C87.6557 49.9247 87.776 49.8999 87.85 49.8927L88.7998 59.6436C93.0996 59.2241 95.6436 56.0712 96.6024 52.8104L87.2034 50.0482ZM87.85 49.8927C88.1231 49.8661 88.7934 49.9019 89.453 50.4443C90.1365 51.0063 90.1981 51.6068 90.1917 51.5409L80.4409 52.4923C80.6375 54.5104 81.463 56.559 83.2298 58.0119C84.9727 59.4452 87.0459 59.8147 88.7998 59.6436L87.85 49.8927ZM90.1917 51.5409C90.1322 50.9308 90.0734 49.8612 90.3077 48.7139L80.7088 46.7556C80.1934 49.2801 80.3401 51.4571 80.4409 52.4923L90.1917 51.5409ZM90.301 48.7461C90.7135 46.7924 91.09 45.6867 91.3584 45.1555C91.4852 44.9046 91.4708 45.0222 91.2211 45.2527C90.9169 45.5337 90.3072 45.9319 89.4379 46.0168L88.4881 36.2659C85.1166 36.5948 83.3816 39.2202 82.6147 40.7379C81.7575 42.4342 81.1744 44.5503 80.7155 46.7233L90.301 48.7461ZM89.4379 46.0168C89.0819 46.0515 88.5113 46.0508 87.8421 45.8332C87.1346 45.6032 86.4995 45.1886 86.0067 44.6431C85.1199 43.6615 85.0484 42.6704 85.0446 42.6309L94.7953 41.6796C94.722 40.9272 94.4737 39.3997 93.2766 38.0746C91.8261 36.4691 89.9122 36.1269 88.4881 36.2659L89.4379 46.0168ZM85.0446 42.6309C85.0373 42.5569 85.0626 42.6769 84.8043 43.7393C84.7059 44.1438 84.5462 44.7824 84.4369 45.4302C84.3253 46.0918 84.2233 46.9887 84.3208 47.989L94.0715 47.0376C94.0901 47.2289 94.0609 47.2745 94.0973 47.0583C94.1361 46.8282 94.1998 46.5626 94.3238 46.0527C94.5102 45.2861 94.9761 43.5361 94.7953 41.6796L85.0446 42.6309ZM84.3208 47.989C84.3889 48.6889 84.6264 50.4293 86.0573 51.8597C87.6894 53.4915 89.7108 53.6306 90.9429 53.5104L89.9931 43.7595C90.3204 43.7276 91.7431 43.6898 92.9843 44.9306C93.5233 45.4694 93.7912 46.0324 93.9203 46.3994C94.0426 46.7474 94.0673 46.995 94.0715 47.0376L84.3208 47.989ZM90.9429 53.5104C92.6582 53.343 94.284 52.6065 95.5168 51.2313C96.6256 49.9944 97.1174 48.5709 97.3695 47.4991L87.8329 45.2574C87.7718 45.5173 87.8003 45.1632 88.2225 44.6923C88.4539 44.4342 88.7583 44.1931 89.1218 44.0161C89.4778 43.8426 89.79 43.7793 89.9931 43.7595L90.9429 53.5104ZM97.3959 47.3805C97.5693 46.5513 97.7386 45.8788 97.9019 45.3438C98.0685 44.7979 98.2046 44.476 98.2875 44.3129C98.3807 44.1294 98.3299 44.2988 98.0394 44.5633C97.6922 44.8794 97.0564 45.2734 96.1836 45.3586L95.2339 35.6077C91.9684 35.9263 90.2882 38.4309 89.5544 39.8743C88.7478 41.4612 88.2165 43.4163 87.8066 45.376L97.3959 47.3805ZM96.1836 45.3586C96.0416 45.3724 94.8914 45.476 93.7034 44.5813C92.4223 43.6164 92.215 42.3537 92.1849 42.045L101.936 41.0936C101.82 39.9074 101.335 38.0629 99.5979 36.7549C97.9544 35.5171 96.1712 35.5163 95.2339 35.6077L96.1836 45.3586ZM92.1849 42.045C92.1552 41.7399 92.1951 41.5722 92.1806 41.6537C92.164 41.7467 92.1208 41.935 92.0061 42.3396C91.8009 43.063 91.3911 44.3731 91.0239 45.9585L100.568 48.1678C100.863 46.8925 101.142 46.0316 101.431 45.0112C101.653 44.2301 102.094 42.7189 101.936 41.0936L92.1849 42.045ZM90.9778 46.1811C90.7526 47.4103 90.61 49.3769 91.7153 51.2059C93.0813 53.4662 95.4217 54.0976 97.1842 53.9257L96.2344 44.1748C96.7351 44.126 97.4468 44.1608 98.2187 44.4975C99.0359 44.8539 99.6836 45.4482 100.1 46.1374C100.834 47.3521 100.55 48.2944 100.614 47.9451L90.9778 46.1811ZM97.1842 53.9257C98.5822 53.7893 99.6233 53.1743 100.232 52.7289C100.869 52.2628 101.366 51.7371 101.723 51.3119C102.437 50.4639 103.015 49.51 103.419 48.7837L94.8551 44.0262C94.7265 44.2577 94.6007 44.4685 94.4829 44.6491C94.3616 44.8351 94.2743 44.9494 94.2274 45.0051C94.1665 45.0775 94.2359 44.9776 94.4473 44.8229C94.5616 44.7393 94.7592 44.6088 95.0395 44.4847C95.3224 44.3595 95.7273 44.2243 96.2344 44.1748L97.1842 53.9257Z" fill="#15206D" mask="url(#path-5-outside-2_64_2514)"/>
<path d="M16.6413 48.0751C16.6414 48.0752 16.6424 48.0775 16.6441 48.0817C16.6421 48.0772 16.6412 48.075 16.6413 48.0751ZM18.377 47.7276C17.2225 47.6747 16.513 47.3082 16.1269 47.0959C16.1186 47.0914 16.1067 47.0847 16.092 47.0765C16.0089 47.0301 15.835 46.9331 15.7045 46.8729C15.7027 46.8721 15.7005 46.8711 15.6978 46.8698C15.6366 46.8412 15.3448 46.7049 14.9687 46.6708C14.7523 46.6512 14.3012 46.6443 13.8172 46.9052C13.2616 47.2045 12.9565 47.6942 12.8316 48.1319C12.7251 48.5048 12.7517 48.817 12.7695 48.959C12.7899 49.1212 12.8253 49.2519 12.8485 49.3289C12.8941 49.4808 12.9505 49.6135 12.9837 49.6894C13.0461 49.8323 13.1344 50.0142 13.2203 50.1912C13.2294 50.21 13.2384 50.2287 13.2474 50.2473C13.6445 51.0665 14.3184 51.7395 14.9742 52.259C15.6594 52.8016 16.4744 53.2936 17.3332 53.7117C19.0297 54.5375 21.1058 55.1751 23.0259 55.2632C24.8318 55.346 26.5988 55.0407 27.8695 54.178C28.5294 53.7301 29.1376 53.0697 29.4162 52.1685C29.7023 51.2427 29.5629 50.3132 29.1714 49.5054C28.5448 48.2125 27.2726 47.7762 26.4426 47.6076C25.5519 47.4266 24.5393 47.4232 23.6226 47.46C22.9363 47.4875 22.195 47.5441 21.4966 47.5974C21.2514 47.6161 21.0114 47.6344 20.781 47.6509C19.8493 47.7177 19.0408 47.7581 18.377 47.7276Z" fill="white" stroke="#15206D" stroke-width="3.99833"/>
<path d="M94.1727 36.1266C94.1727 36.1266 94.1737 36.127 94.1756 36.1279C94.1736 36.127 94.1727 36.1266 94.1727 36.1266ZM95.4702 34.8039C94.6362 35.5156 93.8993 35.7252 93.4967 35.8279C93.4852 35.8309 93.4703 35.8346 93.453 35.8389C93.367 35.8603 93.2203 35.8968 93.1165 35.9313C93.115 35.9318 93.1132 35.9324 93.1112 35.9331C93.061 35.9495 92.8431 36.0209 92.6328 36.1848C92.5122 36.2787 92.2789 36.4908 92.1564 36.8546C92.0159 37.272 92.0934 37.6673 92.2385 37.9505C92.3621 38.192 92.5251 38.3394 92.6033 38.4045C92.6924 38.4787 92.7748 38.5298 92.8259 38.5596C92.9269 38.6184 93.0265 38.6628 93.0898 38.69C93.2085 38.7412 93.3671 38.8022 93.5309 38.8652C93.5475 38.8716 93.5642 38.878 93.5809 38.8844C94.254 39.1436 95.0277 39.1739 95.7358 39.1154C96.4699 39.0547 97.2624 38.8871 98.0456 38.6454C99.5965 38.1667 101.265 37.3486 102.505 36.2909C103.684 35.2848 104.571 34.0902 104.845 32.8799C104.987 32.2546 104.977 31.5538 104.66 30.9002C104.336 30.2306 103.767 29.7746 103.103 29.5186C102.088 29.1279 101.14 29.5376 100.535 29.9099C99.8936 30.3049 99.2664 30.8851 98.7035 31.4558C98.2841 31.881 97.8487 32.3556 97.4332 32.8084C97.2858 32.9691 97.1409 33.127 97.0001 33.279C96.4411 33.8826 95.933 34.4089 95.4702 34.8039Z" fill="white" stroke="#15206D" stroke-width="2.78145"/>
</svg>
