<svg width="140" height="20" viewBox="0 0 140 20" fill="none" xmlns="http://www.w3.org/2000/svg">
<g clip-path="url(#clip0_64_2698)">
<path d="M19.9478 7.28126C19.8839 7.08307 19.763 6.90808 19.6003 6.77811C19.4376 6.64814 19.2402 6.56894 19.0328 6.55038L13.2602 6.02619L10.9776 0.683473C10.8092 0.29194 10.426 0.0385742 10.0001 0.0385742C9.57422 0.0385742 9.19089 0.291979 9.0226 0.68445L6.73997 6.02623L0.9665 6.55038C0.759313 6.56936 0.562253 6.64873 0.39975 6.77865C0.237248 6.90857 0.116451 7.08333 0.052336 7.28126C-0.079347 7.68627 0.0422577 8.13046 0.363164 8.41047L4.72656 12.2371L3.43988 17.9048C3.34574 18.3216 3.50746 18.7524 3.85325 19.0023C4.03908 19.1366 4.25654 19.205 4.47581 19.205C4.66487 19.205 4.85238 19.154 5.02074 19.0533L10.0001 16.0773L14.9776 19.0533C15.3419 19.2724 15.801 19.2524 16.146 19.0023C16.3149 18.88 16.4442 18.7108 16.5177 18.5157C16.5912 18.3206 16.6057 18.1082 16.5594 17.9048L15.2728 12.2371L19.6361 8.41125C19.7931 8.27416 19.9063 8.09397 19.9617 7.89308C20.0171 7.69218 20.0123 7.47943 19.9478 7.28126Z" fill="#FFC107"/>
</g>
<g clip-path="url(#clip1_64_2698)">
<path d="M49.9478 7.28126C49.8839 7.08307 49.763 6.90808 49.6003 6.77811C49.4376 6.64814 49.2402 6.56894 49.0328 6.55038L43.2602 6.02619L40.9776 0.683473C40.8092 0.29194 40.426 0.0385742 40.0001 0.0385742C39.5742 0.0385742 39.1909 0.291979 39.0226 0.68445L36.74 6.02623L30.9665 6.55038C30.7593 6.56936 30.5623 6.64873 30.3998 6.77865C30.2372 6.90857 30.1165 7.08333 30.0523 7.28126C29.9207 7.68627 30.0423 8.13046 30.3632 8.41047L34.7266 12.2371L33.4399 17.9048C33.3457 18.3216 33.5075 18.7524 33.8533 19.0023C34.0391 19.1366 34.2565 19.205 34.4758 19.205C34.6649 19.205 34.8524 19.154 35.0207 19.0533L40.0001 16.0773L44.9776 19.0533C45.3419 19.2724 45.801 19.2524 46.146 19.0023C46.3149 18.88 46.4442 18.7108 46.5177 18.5157C46.5912 18.3206 46.6057 18.1082 46.5594 17.9048L45.2728 12.2371L49.6361 8.41125C49.7931 8.27416 49.9063 8.09397 49.9617 7.89308C50.0171 7.69218 50.0123 7.47943 49.9478 7.28126Z" fill="#FFC107"/>
</g>
<g clip-path="url(#clip2_64_2698)">
<path d="M79.9478 7.28126C79.8839 7.08307 79.763 6.90808 79.6003 6.77811C79.4376 6.64814 79.2402 6.56894 79.0328 6.55038L73.2602 6.02619L70.9776 0.683473C70.8092 0.29194 70.426 0.0385742 70.0001 0.0385742C69.5742 0.0385742 69.1909 0.291979 69.0226 0.68445L66.74 6.02623L60.9665 6.55038C60.7593 6.56936 60.5623 6.64873 60.3998 6.77865C60.2372 6.90857 60.1165 7.08333 60.0523 7.28126C59.9207 7.68627 60.0423 8.13046 60.3632 8.41047L64.7266 12.2371L63.4399 17.9048C63.3457 18.3216 63.5075 18.7524 63.8533 19.0023C64.0391 19.1366 64.2565 19.205 64.4758 19.205C64.6649 19.205 64.8524 19.154 65.0207 19.0533L70.0001 16.0773L74.9776 19.0533C75.3419 19.2724 75.801 19.2524 76.146 19.0023C76.3149 18.88 76.4442 18.7108 76.5177 18.5157C76.5912 18.3206 76.6057 18.1082 76.5594 17.9048L75.2728 12.2371L79.6361 8.41125C79.7931 8.27416 79.9063 8.09397 79.9617 7.89308C80.0171 7.69218 80.0123 7.47943 79.9478 7.28126Z" fill="#FFC107"/>
</g>
<g clip-path="url(#clip3_64_2698)">
<path d="M109.948 7.28126C109.884 7.08307 109.763 6.90808 109.6 6.77811C109.438 6.64814 109.24 6.56894 109.033 6.55038L103.26 6.02619L100.978 0.683473C100.809 0.29194 100.426 0.0385742 100 0.0385742C99.5742 0.0385742 99.1909 0.291979 99.0226 0.68445L96.74 6.02623L90.9665 6.55038C90.7593 6.56936 90.5623 6.64873 90.3998 6.77865C90.2372 6.90857 90.1165 7.08333 90.0523 7.28126C89.9207 7.68627 90.0423 8.13046 90.3632 8.41047L94.7266 12.2371L93.4399 17.9048C93.3457 18.3216 93.5075 18.7524 93.8533 19.0023C94.0391 19.1366 94.2565 19.205 94.4758 19.205C94.6649 19.205 94.8524 19.154 95.0207 19.0533L100 16.0773L104.978 19.0533C105.342 19.2724 105.801 19.2524 106.146 19.0023C106.315 18.88 106.444 18.7108 106.518 18.5157C106.591 18.3206 106.606 18.1082 106.559 17.9048L105.273 12.2371L109.636 8.41125C109.793 8.27416 109.906 8.09397 109.962 7.89308C110.017 7.69218 110.012 7.47943 109.948 7.28126Z" fill="#FFC107"/>
</g>
<g clip-path="url(#clip4_64_2698)">
<path d="M139.948 7.28126C139.884 7.08307 139.763 6.90808 139.6 6.77811C139.438 6.64814 139.24 6.56894 139.033 6.55038L133.26 6.02619L130.978 0.683473C130.809 0.29194 130.426 0.0385742 130 0.0385742C129.574 0.0385742 129.191 0.291979 129.023 0.68445L126.74 6.02623L120.966 6.55038C120.759 6.56936 120.562 6.64873 120.4 6.77865C120.237 6.90857 120.116 7.08333 120.052 7.28126C119.921 7.68627 120.042 8.13046 120.363 8.41047L124.727 12.2371L123.44 17.9048C123.346 18.3216 123.507 18.7524 123.853 19.0023C124.039 19.1366 124.257 19.205 124.476 19.205C124.665 19.205 124.852 19.154 125.021 19.0533L130 16.0773L134.978 19.0533C135.342 19.2724 135.801 19.2524 136.146 19.0023C136.315 18.88 136.444 18.7108 136.518 18.5157C136.591 18.3206 136.606 18.1082 136.559 17.9048L135.273 12.2371L139.636 8.41125C139.793 8.27416 139.906 8.09397 139.962 7.89308C140.017 7.69218 140.012 7.47943 139.948 7.28126Z" fill="#FFC107"/>
</g>
<defs>
<clipPath id="clip0_64_2698">
<rect width="20" height="20" fill="white"/>
</clipPath>
<clipPath id="clip1_64_2698">
<rect width="20" height="20" fill="white" transform="translate(30)"/>
</clipPath>
<clipPath id="clip2_64_2698">
<rect width="20" height="20" fill="white" transform="translate(60)"/>
</clipPath>
<clipPath id="clip3_64_2698">
<rect width="20" height="20" fill="white" transform="translate(90)"/>
</clipPath>
<clipPath id="clip4_64_2698">
<rect width="20" height="20" fill="white" transform="translate(120)"/>
</clipPath>
</defs>
</svg>
